<mxfile host="app.diagrams.net" modified="2023-11-07T08:09:38.799Z" agent="Mozilla/5.0 (X11; Ubuntu; Linux x86_64; rv:109.0) Gecko/20100101 Firefox/119.0" etag="qldAlfzMS2omOWU0k0RA" version="22.0.8" type="device" pages="3">
  <diagram name="CUSTOM_OCRAM" id="mRwf2Tt7gSMkgwhpIQXF">
    <mxGraphModel dx="2013" dy="1147" grid="1" gridSize="10" guides="1" tooltips="1" connect="1" arrows="1" fold="1" page="1" pageScale="1" pageWidth="850" pageHeight="1100" math="0" shadow="0">
      <root>
        <mxCell id="0" />
        <mxCell id="1" parent="0" />
        <mxCell id="0eef9Mi7oPhn6ne6af0u-16" style="edgeStyle=orthogonalEdgeStyle;rounded=0;orthogonalLoop=1;jettySize=auto;html=1;exitX=0.5;exitY=1;exitDx=0;exitDy=0;entryX=0.5;entryY=0;entryDx=0;entryDy=0;strokeColor=#999999;" parent="1" source="0eef9Mi7oPhn6ne6af0u-1" target="0eef9Mi7oPhn6ne6af0u-2" edge="1">
          <mxGeometry relative="1" as="geometry" />
        </mxCell>
        <mxCell id="0eef9Mi7oPhn6ne6af0u-1" value="&lt;div&gt;&lt;font style=&quot;font-size: 20px;&quot; color=&quot;#999999&quot;&gt;OCRAM &lt;br&gt;&lt;/font&gt;&lt;/div&gt;&lt;div&gt;&lt;font style=&quot;font-size: 20px;&quot; color=&quot;#999999&quot;&gt;ARRAY&lt;/font&gt;&lt;/div&gt;" style="rounded=0;whiteSpace=wrap;html=1;strokeColor=#999999;" parent="1" vertex="1">
          <mxGeometry x="1390" y="300" width="140" height="320" as="geometry" />
        </mxCell>
        <mxCell id="0eef9Mi7oPhn6ne6af0u-2" value="&lt;font style=&quot;font-size: 20px;&quot; color=&quot;#999999&quot;&gt;dout_reg&lt;br&gt;&lt;/font&gt;" style="rounded=0;whiteSpace=wrap;html=1;strokeColor=#999999;" parent="1" vertex="1">
          <mxGeometry x="1410" y="680" width="100" height="40" as="geometry" />
        </mxCell>
        <mxCell id="0eef9Mi7oPhn6ne6af0u-7" value="&lt;font style=&quot;font-size: 20px;&quot; color=&quot;#999999&quot;&gt;din_reg&lt;br&gt;&lt;/font&gt;" style="rounded=0;whiteSpace=wrap;html=1;strokeColor=#999999;" parent="1" vertex="1">
          <mxGeometry x="1230" y="560" width="100" height="40" as="geometry" />
        </mxCell>
        <mxCell id="0eef9Mi7oPhn6ne6af0u-8" value="&lt;font style=&quot;font-size: 20px;&quot; color=&quot;#999999&quot;&gt;wren_reg&lt;br&gt;&lt;/font&gt;" style="rounded=0;whiteSpace=wrap;html=1;strokeColor=#999999;" parent="1" vertex="1">
          <mxGeometry x="1230" y="480" width="100" height="40" as="geometry" />
        </mxCell>
        <mxCell id="0eef9Mi7oPhn6ne6af0u-9" value="&lt;font style=&quot;font-size: 20px;&quot; color=&quot;#999999&quot;&gt;rden_reg&lt;br&gt;&lt;/font&gt;" style="rounded=0;whiteSpace=wrap;html=1;strokeColor=#999999;" parent="1" vertex="1">
          <mxGeometry x="1230" y="400" width="100" height="40" as="geometry" />
        </mxCell>
        <mxCell id="0eef9Mi7oPhn6ne6af0u-10" value="&lt;font style=&quot;font-size: 20px;&quot; color=&quot;#999999&quot;&gt;addr_reg&lt;br&gt;&lt;/font&gt;" style="rounded=0;whiteSpace=wrap;html=1;strokeColor=#999999;" parent="1" vertex="1">
          <mxGeometry x="1230" y="320" width="100" height="40" as="geometry" />
        </mxCell>
        <mxCell id="0eef9Mi7oPhn6ne6af0u-11" value="" style="triangle;whiteSpace=wrap;html=1;strokeColor=#999999;" parent="1" vertex="1">
          <mxGeometry x="1230" y="350" width="10" height="10" as="geometry" />
        </mxCell>
        <mxCell id="0eef9Mi7oPhn6ne6af0u-12" value="" style="triangle;whiteSpace=wrap;html=1;strokeColor=#999999;" parent="1" vertex="1">
          <mxGeometry x="1230" y="430" width="10" height="10" as="geometry" />
        </mxCell>
        <mxCell id="0eef9Mi7oPhn6ne6af0u-13" value="" style="triangle;whiteSpace=wrap;html=1;strokeColor=#999999;" parent="1" vertex="1">
          <mxGeometry x="1230" y="510" width="10" height="10" as="geometry" />
        </mxCell>
        <mxCell id="0eef9Mi7oPhn6ne6af0u-14" value="" style="triangle;whiteSpace=wrap;html=1;strokeColor=#999999;" parent="1" vertex="1">
          <mxGeometry x="1230" y="590" width="10" height="10" as="geometry" />
        </mxCell>
        <mxCell id="0eef9Mi7oPhn6ne6af0u-15" value="" style="triangle;whiteSpace=wrap;html=1;strokeColor=#999999;" parent="1" vertex="1">
          <mxGeometry x="1410" y="710" width="10" height="10" as="geometry" />
        </mxCell>
        <mxCell id="0eef9Mi7oPhn6ne6af0u-31" style="edgeStyle=orthogonalEdgeStyle;rounded=0;orthogonalLoop=1;jettySize=auto;html=1;exitX=1;exitY=0.5;exitDx=0;exitDy=0;strokeColor=#999999;" parent="1" source="0eef9Mi7oPhn6ne6af0u-44" edge="1">
          <mxGeometry relative="1" as="geometry">
            <mxPoint x="1230" y="500" as="targetPoint" />
            <mxPoint x="1170" y="500" as="sourcePoint" />
          </mxGeometry>
        </mxCell>
        <mxCell id="0eef9Mi7oPhn6ne6af0u-32" style="edgeStyle=orthogonalEdgeStyle;rounded=0;orthogonalLoop=1;jettySize=auto;html=1;exitX=1;exitY=0.5;exitDx=0;exitDy=0;strokeColor=#999999;" parent="1" source="0eef9Mi7oPhn6ne6af0u-43" edge="1">
          <mxGeometry relative="1" as="geometry">
            <mxPoint x="1230" y="420" as="targetPoint" />
            <mxPoint x="1170" y="420" as="sourcePoint" />
          </mxGeometry>
        </mxCell>
        <mxCell id="0eef9Mi7oPhn6ne6af0u-33" style="edgeStyle=orthogonalEdgeStyle;rounded=0;orthogonalLoop=1;jettySize=auto;html=1;exitX=1;exitY=0.5;exitDx=0;exitDy=0;strokeColor=#999999;" parent="1" source="0eef9Mi7oPhn6ne6af0u-42" edge="1">
          <mxGeometry relative="1" as="geometry">
            <mxPoint x="1230" y="340" as="targetPoint" />
            <mxPoint x="1170" y="340" as="sourcePoint" />
          </mxGeometry>
        </mxCell>
        <mxCell id="0eef9Mi7oPhn6ne6af0u-35" style="edgeStyle=orthogonalEdgeStyle;rounded=0;orthogonalLoop=1;jettySize=auto;html=1;exitX=1;exitY=0.5;exitDx=0;exitDy=0;strokeColor=#999999;" parent="1" source="0eef9Mi7oPhn6ne6af0u-45" edge="1">
          <mxGeometry relative="1" as="geometry">
            <mxPoint x="1230" y="580" as="targetPoint" />
            <mxPoint x="1170" y="580" as="sourcePoint" />
          </mxGeometry>
        </mxCell>
        <mxCell id="0eef9Mi7oPhn6ne6af0u-36" style="edgeStyle=orthogonalEdgeStyle;rounded=0;orthogonalLoop=1;jettySize=auto;html=1;exitX=1;exitY=0.5;exitDx=0;exitDy=0;strokeColor=#999999;" parent="1" edge="1">
          <mxGeometry relative="1" as="geometry">
            <mxPoint x="1390" y="499.70000000000005" as="targetPoint" />
            <mxPoint x="1330" y="499.70000000000005" as="sourcePoint" />
          </mxGeometry>
        </mxCell>
        <mxCell id="0eef9Mi7oPhn6ne6af0u-37" style="edgeStyle=orthogonalEdgeStyle;rounded=0;orthogonalLoop=1;jettySize=auto;html=1;exitX=1;exitY=0.5;exitDx=0;exitDy=0;strokeColor=#999999;" parent="1" edge="1">
          <mxGeometry relative="1" as="geometry">
            <mxPoint x="1390" y="419.7" as="targetPoint" />
            <mxPoint x="1330" y="419.7" as="sourcePoint" />
          </mxGeometry>
        </mxCell>
        <mxCell id="0eef9Mi7oPhn6ne6af0u-38" style="edgeStyle=orthogonalEdgeStyle;rounded=0;orthogonalLoop=1;jettySize=auto;html=1;exitX=1;exitY=0.5;exitDx=0;exitDy=0;strokeColor=#999999;" parent="1" edge="1">
          <mxGeometry relative="1" as="geometry">
            <mxPoint x="1390" y="339.7" as="targetPoint" />
            <mxPoint x="1330" y="339.7" as="sourcePoint" />
          </mxGeometry>
        </mxCell>
        <mxCell id="0eef9Mi7oPhn6ne6af0u-39" style="edgeStyle=orthogonalEdgeStyle;rounded=0;orthogonalLoop=1;jettySize=auto;html=1;exitX=1;exitY=0.5;exitDx=0;exitDy=0;strokeColor=#999999;" parent="1" edge="1">
          <mxGeometry relative="1" as="geometry">
            <mxPoint x="1390" y="579.7" as="targetPoint" />
            <mxPoint x="1330" y="579.7" as="sourcePoint" />
          </mxGeometry>
        </mxCell>
        <mxCell id="0eef9Mi7oPhn6ne6af0u-40" style="edgeStyle=orthogonalEdgeStyle;rounded=0;orthogonalLoop=1;jettySize=auto;html=1;strokeColor=#999999;exitX=0;exitY=0.5;exitDx=0;exitDy=0;entryX=1;entryY=0.5;entryDx=0;entryDy=0;" parent="1" source="0eef9Mi7oPhn6ne6af0u-2" target="0eef9Mi7oPhn6ne6af0u-46" edge="1">
          <mxGeometry relative="1" as="geometry">
            <mxPoint x="1170" y="700" as="targetPoint" />
            <mxPoint x="1420" y="700" as="sourcePoint" />
          </mxGeometry>
        </mxCell>
        <mxCell id="0eef9Mi7oPhn6ne6af0u-41" value="" style="rounded=0;whiteSpace=wrap;html=1;fillColor=none;" parent="1" vertex="1">
          <mxGeometry x="1080" y="280" width="480" height="480" as="geometry" />
        </mxCell>
        <mxCell id="0eef9Mi7oPhn6ne6af0u-42" value="&lt;font style=&quot;font-size: 20px;&quot;&gt;address&lt;/font&gt;" style="text;html=1;strokeColor=none;fillColor=none;align=left;verticalAlign=middle;whiteSpace=wrap;rounded=0;" parent="1" vertex="1">
          <mxGeometry x="1090" y="325" width="80" height="30" as="geometry" />
        </mxCell>
        <mxCell id="0eef9Mi7oPhn6ne6af0u-43" value="&lt;font style=&quot;font-size: 20px;&quot;&gt;rden&lt;/font&gt;" style="text;html=1;strokeColor=none;fillColor=none;align=left;verticalAlign=middle;whiteSpace=wrap;rounded=0;" parent="1" vertex="1">
          <mxGeometry x="1090" y="405" width="50" height="30" as="geometry" />
        </mxCell>
        <mxCell id="0eef9Mi7oPhn6ne6af0u-44" value="&lt;font style=&quot;font-size: 20px;&quot;&gt;wren&lt;/font&gt;" style="text;html=1;strokeColor=none;fillColor=none;align=left;verticalAlign=middle;whiteSpace=wrap;rounded=0;" parent="1" vertex="1">
          <mxGeometry x="1090" y="485" width="55" height="30" as="geometry" />
        </mxCell>
        <mxCell id="0eef9Mi7oPhn6ne6af0u-45" value="&lt;font style=&quot;font-size: 20px;&quot;&gt;data&lt;/font&gt;" style="text;html=1;strokeColor=none;fillColor=none;align=left;verticalAlign=middle;whiteSpace=wrap;rounded=0;" parent="1" vertex="1">
          <mxGeometry x="1090" y="565" width="50" height="30" as="geometry" />
        </mxCell>
        <mxCell id="0eef9Mi7oPhn6ne6af0u-46" value="&lt;font style=&quot;font-size: 20px;&quot;&gt;q&lt;/font&gt;" style="text;html=1;strokeColor=none;fillColor=none;align=left;verticalAlign=middle;whiteSpace=wrap;rounded=0;" parent="1" vertex="1">
          <mxGeometry x="1090" y="685" width="20" height="30" as="geometry" />
        </mxCell>
        <mxCell id="0eef9Mi7oPhn6ne6af0u-47" value="&lt;font style=&quot;font-size: 20px;&quot;&gt;BLOCKRAM_1PORT&lt;/font&gt;" style="rounded=0;whiteSpace=wrap;html=1;" parent="1" vertex="1">
          <mxGeometry x="1080" y="240" width="480" height="40" as="geometry" />
        </mxCell>
        <mxCell id="0eef9Mi7oPhn6ne6af0u-49" value="" style="triangle;whiteSpace=wrap;html=1;" parent="1" vertex="1">
          <mxGeometry x="1080" y="740" width="20" height="20" as="geometry" />
        </mxCell>
        <mxCell id="0eef9Mi7oPhn6ne6af0u-57" value="&lt;font style=&quot;font-size: 20px;&quot;&gt;blockram_address&lt;/font&gt;" style="text;html=1;strokeColor=none;fillColor=none;align=right;verticalAlign=middle;whiteSpace=wrap;rounded=0;" parent="1" vertex="1">
          <mxGeometry x="816" y="325" width="174" height="30" as="geometry" />
        </mxCell>
        <mxCell id="0eef9Mi7oPhn6ne6af0u-58" value="&lt;font style=&quot;font-size: 20px;&quot;&gt;blockram_&lt;/font&gt;&lt;font style=&quot;font-size: 20px;&quot;&gt;rden&lt;/font&gt;" style="text;html=1;strokeColor=none;fillColor=none;align=right;verticalAlign=middle;whiteSpace=wrap;rounded=0;" parent="1" vertex="1">
          <mxGeometry x="847" y="405" width="143" height="30" as="geometry" />
        </mxCell>
        <mxCell id="0eef9Mi7oPhn6ne6af0u-59" value="&lt;font style=&quot;font-size: 20px;&quot;&gt;blockram_&lt;/font&gt;&lt;font style=&quot;font-size: 20px;&quot;&gt;wren&lt;/font&gt;" style="text;html=1;strokeColor=none;fillColor=none;align=right;verticalAlign=middle;whiteSpace=wrap;rounded=0;" parent="1" vertex="1">
          <mxGeometry x="845" y="485" width="145" height="30" as="geometry" />
        </mxCell>
        <mxCell id="0eef9Mi7oPhn6ne6af0u-60" value="&lt;font style=&quot;font-size: 20px;&quot;&gt;blockram_&lt;/font&gt;&lt;font style=&quot;font-size: 20px;&quot;&gt;data&lt;/font&gt;" style="text;html=1;strokeColor=none;fillColor=none;align=right;verticalAlign=middle;whiteSpace=wrap;rounded=0;" parent="1" vertex="1">
          <mxGeometry x="850" y="565" width="140" height="30" as="geometry" />
        </mxCell>
        <mxCell id="0eef9Mi7oPhn6ne6af0u-61" value="&lt;font style=&quot;font-size: 20px;&quot;&gt;blockram_&lt;/font&gt;&lt;font style=&quot;font-size: 20px;&quot;&gt;q&lt;/font&gt;" style="text;html=1;strokeColor=none;fillColor=none;align=right;verticalAlign=middle;whiteSpace=wrap;rounded=0;" parent="1" vertex="1">
          <mxGeometry x="876" y="685" width="114" height="30" as="geometry" />
        </mxCell>
        <mxCell id="0eef9Mi7oPhn6ne6af0u-64" value="&lt;font style=&quot;font-size: 20px;&quot;&gt;avs_address&lt;/font&gt;" style="text;html=1;strokeColor=none;fillColor=none;align=left;verticalAlign=middle;whiteSpace=wrap;rounded=0;" parent="1" vertex="1">
          <mxGeometry x="370" y="325" width="130" height="30" as="geometry" />
        </mxCell>
        <mxCell id="0eef9Mi7oPhn6ne6af0u-65" value="&lt;font style=&quot;font-size: 20px;&quot;&gt;avs_read&lt;/font&gt;" style="text;html=1;strokeColor=none;fillColor=none;align=left;verticalAlign=middle;whiteSpace=wrap;rounded=0;" parent="1" vertex="1">
          <mxGeometry x="370" y="365" width="100" height="30" as="geometry" />
        </mxCell>
        <mxCell id="0eef9Mi7oPhn6ne6af0u-69" value="&lt;font style=&quot;font-size: 20px;&quot;&gt;avs_write&lt;/font&gt;" style="text;html=1;strokeColor=none;fillColor=none;align=left;verticalAlign=middle;whiteSpace=wrap;rounded=0;" parent="1" vertex="1">
          <mxGeometry x="370" y="405" width="100" height="30" as="geometry" />
        </mxCell>
        <mxCell id="0eef9Mi7oPhn6ne6af0u-70" value="&lt;font style=&quot;font-size: 20px;&quot;&gt;avs_waitrequest&lt;/font&gt;" style="text;html=1;strokeColor=none;fillColor=none;align=left;verticalAlign=middle;whiteSpace=wrap;rounded=0;" parent="1" vertex="1">
          <mxGeometry x="370" y="445" width="160" height="30" as="geometry" />
        </mxCell>
        <mxCell id="0eef9Mi7oPhn6ne6af0u-72" value="&lt;font style=&quot;font-size: 20px;&quot;&gt;avs_readdatavalid&lt;/font&gt;" style="text;html=1;strokeColor=none;fillColor=none;align=left;verticalAlign=middle;whiteSpace=wrap;rounded=0;" parent="1" vertex="1">
          <mxGeometry x="370" y="485" width="180" height="30" as="geometry" />
        </mxCell>
        <mxCell id="0eef9Mi7oPhn6ne6af0u-73" value="&lt;font style=&quot;font-size: 20px;&quot;&gt;avs_writedata&lt;/font&gt;" style="text;html=1;strokeColor=none;fillColor=none;align=left;verticalAlign=middle;whiteSpace=wrap;rounded=0;" parent="1" vertex="1">
          <mxGeometry x="370" y="605" width="140" height="30" as="geometry" />
        </mxCell>
        <mxCell id="0eef9Mi7oPhn6ne6af0u-74" value="&lt;font style=&quot;font-size: 20px;&quot;&gt;avs_readdata&lt;/font&gt;" style="text;html=1;strokeColor=none;fillColor=none;align=left;verticalAlign=middle;whiteSpace=wrap;rounded=0;" parent="1" vertex="1">
          <mxGeometry x="370" y="645" width="140" height="30" as="geometry" />
        </mxCell>
        <mxCell id="0eef9Mi7oPhn6ne6af0u-88" value="" style="rounded=0;whiteSpace=wrap;html=1;fillColor=none;" parent="1" vertex="1">
          <mxGeometry x="360" y="280" width="640" height="480" as="geometry" />
        </mxCell>
        <mxCell id="0eef9Mi7oPhn6ne6af0u-89" value="&lt;font style=&quot;font-size: 20px;&quot;&gt;AVS_TO_BLOCKRAM_CONVERTER&lt;/font&gt;" style="rounded=0;whiteSpace=wrap;html=1;" parent="1" vertex="1">
          <mxGeometry x="360" y="240" width="640" height="40" as="geometry" />
        </mxCell>
        <mxCell id="0eef9Mi7oPhn6ne6af0u-90" value="" style="endArrow=classic;html=1;rounded=0;" parent="1" edge="1">
          <mxGeometry width="50" height="50" relative="1" as="geometry">
            <mxPoint x="1000" y="339.63" as="sourcePoint" />
            <mxPoint x="1080" y="339.63" as="targetPoint" />
          </mxGeometry>
        </mxCell>
        <mxCell id="0eef9Mi7oPhn6ne6af0u-91" value="" style="endArrow=classic;html=1;rounded=0;" parent="1" edge="1">
          <mxGeometry width="50" height="50" relative="1" as="geometry">
            <mxPoint x="1000" y="419.63" as="sourcePoint" />
            <mxPoint x="1080" y="419.63" as="targetPoint" />
          </mxGeometry>
        </mxCell>
        <mxCell id="0eef9Mi7oPhn6ne6af0u-92" value="" style="endArrow=classic;html=1;rounded=0;" parent="1" edge="1">
          <mxGeometry width="50" height="50" relative="1" as="geometry">
            <mxPoint x="1000" y="499.63" as="sourcePoint" />
            <mxPoint x="1080" y="499.63" as="targetPoint" />
          </mxGeometry>
        </mxCell>
        <mxCell id="0eef9Mi7oPhn6ne6af0u-93" value="" style="endArrow=classic;html=1;rounded=0;" parent="1" edge="1">
          <mxGeometry width="50" height="50" relative="1" as="geometry">
            <mxPoint x="1000" y="580" as="sourcePoint" />
            <mxPoint x="1080" y="580" as="targetPoint" />
            <Array as="points">
              <mxPoint x="1040" y="580" />
            </Array>
          </mxGeometry>
        </mxCell>
        <mxCell id="0eef9Mi7oPhn6ne6af0u-94" value="" style="endArrow=classic;html=1;rounded=0;" parent="1" edge="1">
          <mxGeometry width="50" height="50" relative="1" as="geometry">
            <mxPoint x="1080" y="699.63" as="sourcePoint" />
            <mxPoint x="1000" y="699.63" as="targetPoint" />
          </mxGeometry>
        </mxCell>
        <mxCell id="0eef9Mi7oPhn6ne6af0u-96" value="" style="shape=flexArrow;endArrow=classic;startArrow=classic;html=1;rounded=0;startWidth=37.241379310344826;startSize=12.710344827586207;width=40;endWidth=37.241379310344826;endSize=12.710344827586207;fillColor=#CCCCCC;" parent="1" edge="1">
          <mxGeometry width="100" height="100" relative="1" as="geometry">
            <mxPoint x="230" y="760" as="sourcePoint" />
            <mxPoint x="230" y="240" as="targetPoint" />
          </mxGeometry>
        </mxCell>
        <mxCell id="0eef9Mi7oPhn6ne6af0u-98" value="&lt;font style=&quot;font-size: 20px;&quot;&gt;AVALON BUS&lt;/font&gt;" style="text;html=1;strokeColor=none;fillColor=none;align=center;verticalAlign=middle;whiteSpace=wrap;rounded=0;rotation=-90;" parent="1" vertex="1">
          <mxGeometry x="162" y="485" width="140" height="30" as="geometry" />
        </mxCell>
        <mxCell id="0eef9Mi7oPhn6ne6af0u-101" value="" style="endArrow=classic;html=1;rounded=0;" parent="1" edge="1">
          <mxGeometry width="50" height="50" relative="1" as="geometry">
            <mxPoint x="250" y="340" as="sourcePoint" />
            <mxPoint x="320" y="340" as="targetPoint" />
          </mxGeometry>
        </mxCell>
        <mxCell id="0eef9Mi7oPhn6ne6af0u-106" value="" style="endArrow=classic;html=1;rounded=0;" parent="1" edge="1">
          <mxGeometry width="50" height="50" relative="1" as="geometry">
            <mxPoint x="250" y="380.13" as="sourcePoint" />
            <mxPoint x="320" y="380" as="targetPoint" />
          </mxGeometry>
        </mxCell>
        <mxCell id="0eef9Mi7oPhn6ne6af0u-107" value="" style="endArrow=classic;html=1;rounded=0;" parent="1" edge="1">
          <mxGeometry width="50" height="50" relative="1" as="geometry">
            <mxPoint x="250" y="420.13" as="sourcePoint" />
            <mxPoint x="320" y="420" as="targetPoint" />
          </mxGeometry>
        </mxCell>
        <mxCell id="0eef9Mi7oPhn6ne6af0u-108" value="" style="endArrow=classic;html=1;rounded=0;" parent="1" edge="1">
          <mxGeometry width="50" height="50" relative="1" as="geometry">
            <mxPoint x="320" y="460" as="sourcePoint" />
            <mxPoint x="250" y="460.13" as="targetPoint" />
          </mxGeometry>
        </mxCell>
        <mxCell id="0eef9Mi7oPhn6ne6af0u-109" value="" style="endArrow=classic;html=1;rounded=0;" parent="1" edge="1">
          <mxGeometry width="50" height="50" relative="1" as="geometry">
            <mxPoint x="320" y="500" as="sourcePoint" />
            <mxPoint x="250" y="500.13" as="targetPoint" />
          </mxGeometry>
        </mxCell>
        <mxCell id="0eef9Mi7oPhn6ne6af0u-110" value="" style="endArrow=classic;html=1;rounded=0;" parent="1" edge="1">
          <mxGeometry width="50" height="50" relative="1" as="geometry">
            <mxPoint x="250" y="620.4300000000001" as="sourcePoint" />
            <mxPoint x="320" y="620" as="targetPoint" />
          </mxGeometry>
        </mxCell>
        <mxCell id="0eef9Mi7oPhn6ne6af0u-112" value="" style="triangle;whiteSpace=wrap;html=1;" parent="1" vertex="1">
          <mxGeometry x="360" y="740" width="20" height="20" as="geometry" />
        </mxCell>
        <mxCell id="0eef9Mi7oPhn6ne6af0u-113" value="" style="endArrow=classic;html=1;rounded=0;" parent="1" edge="1">
          <mxGeometry width="50" height="50" relative="1" as="geometry">
            <mxPoint x="320" y="660" as="sourcePoint" />
            <mxPoint x="250" y="660.13" as="targetPoint" />
          </mxGeometry>
        </mxCell>
        <mxCell id="0eef9Mi7oPhn6ne6af0u-114" value="" style="endArrow=classic;html=1;rounded=0;" parent="1" edge="1">
          <mxGeometry width="50" height="50" relative="1" as="geometry">
            <mxPoint x="320" y="339.57" as="sourcePoint" />
            <mxPoint x="360" y="339.57" as="targetPoint" />
          </mxGeometry>
        </mxCell>
        <mxCell id="0eef9Mi7oPhn6ne6af0u-115" value="" style="endArrow=classic;html=1;rounded=0;" parent="1" edge="1">
          <mxGeometry width="50" height="50" relative="1" as="geometry">
            <mxPoint x="320" y="379.57" as="sourcePoint" />
            <mxPoint x="360" y="379.57" as="targetPoint" />
          </mxGeometry>
        </mxCell>
        <mxCell id="0eef9Mi7oPhn6ne6af0u-116" value="" style="endArrow=classic;html=1;rounded=0;" parent="1" edge="1">
          <mxGeometry width="50" height="50" relative="1" as="geometry">
            <mxPoint x="320" y="419.57" as="sourcePoint" />
            <mxPoint x="360" y="419.57" as="targetPoint" />
          </mxGeometry>
        </mxCell>
        <mxCell id="0eef9Mi7oPhn6ne6af0u-117" value="" style="endArrow=classic;html=1;rounded=0;" parent="1" edge="1">
          <mxGeometry width="50" height="50" relative="1" as="geometry">
            <mxPoint x="360" y="459.57" as="sourcePoint" />
            <mxPoint x="320" y="459.57" as="targetPoint" />
          </mxGeometry>
        </mxCell>
        <mxCell id="0eef9Mi7oPhn6ne6af0u-118" value="" style="endArrow=classic;html=1;rounded=0;" parent="1" edge="1">
          <mxGeometry width="50" height="50" relative="1" as="geometry">
            <mxPoint x="360" y="499.56999999999994" as="sourcePoint" />
            <mxPoint x="320" y="499.56999999999994" as="targetPoint" />
          </mxGeometry>
        </mxCell>
        <mxCell id="0eef9Mi7oPhn6ne6af0u-119" value="" style="endArrow=classic;html=1;rounded=0;" parent="1" edge="1">
          <mxGeometry width="50" height="50" relative="1" as="geometry">
            <mxPoint x="360" y="659.5699999999999" as="sourcePoint" />
            <mxPoint x="320" y="659.5699999999999" as="targetPoint" />
          </mxGeometry>
        </mxCell>
        <mxCell id="0eef9Mi7oPhn6ne6af0u-120" value="" style="endArrow=classic;html=1;rounded=0;" parent="1" edge="1">
          <mxGeometry width="50" height="50" relative="1" as="geometry">
            <mxPoint x="320" y="620" as="sourcePoint" />
            <mxPoint x="360" y="620" as="targetPoint" />
          </mxGeometry>
        </mxCell>
        <mxCell id="0eef9Mi7oPhn6ne6af0u-121" value="" style="rounded=0;whiteSpace=wrap;html=1;fillColor=none;strokeWidth=2;strokeColor=#FF0000;" parent="1" vertex="1">
          <mxGeometry x="320" y="200" width="1280" height="600" as="geometry" />
        </mxCell>
        <mxCell id="0eef9Mi7oPhn6ne6af0u-122" value="&lt;font color=&quot;#ff0000&quot; style=&quot;font-size: 20px;&quot;&gt;MY_OCRAM&lt;/font&gt;" style="rounded=0;whiteSpace=wrap;html=1;strokeWidth=2;strokeColor=#FF0000;" parent="1" vertex="1">
          <mxGeometry x="320" y="160" width="1280" height="40" as="geometry" />
        </mxCell>
        <mxCell id="wJcV7WHATaQ0x44lFBmd-6" value="&lt;font style=&quot;font-size: 20px;&quot;&gt;avs_beginbursttransfer&lt;/font&gt;" style="text;html=1;strokeColor=none;fillColor=none;align=left;verticalAlign=middle;whiteSpace=wrap;rounded=0;" vertex="1" parent="1">
          <mxGeometry x="370" y="525" width="210" height="30" as="geometry" />
        </mxCell>
        <mxCell id="wJcV7WHATaQ0x44lFBmd-7" value="&lt;font style=&quot;font-size: 20px;&quot;&gt;avs_burstcount&lt;/font&gt;" style="text;html=1;strokeColor=none;fillColor=none;align=left;verticalAlign=middle;whiteSpace=wrap;rounded=0;" vertex="1" parent="1">
          <mxGeometry x="370" y="564.29" width="150" height="30" as="geometry" />
        </mxCell>
        <mxCell id="wJcV7WHATaQ0x44lFBmd-8" value="" style="endArrow=classic;html=1;rounded=0;" edge="1" parent="1">
          <mxGeometry width="50" height="50" relative="1" as="geometry">
            <mxPoint x="250" y="539.42" as="sourcePoint" />
            <mxPoint x="320" y="539.29" as="targetPoint" />
          </mxGeometry>
        </mxCell>
        <mxCell id="wJcV7WHATaQ0x44lFBmd-9" value="" style="endArrow=classic;html=1;rounded=0;" edge="1" parent="1">
          <mxGeometry width="50" height="50" relative="1" as="geometry">
            <mxPoint x="250" y="579.42" as="sourcePoint" />
            <mxPoint x="320" y="579.29" as="targetPoint" />
          </mxGeometry>
        </mxCell>
        <mxCell id="wJcV7WHATaQ0x44lFBmd-10" value="" style="endArrow=classic;html=1;rounded=0;" edge="1" parent="1">
          <mxGeometry width="50" height="50" relative="1" as="geometry">
            <mxPoint x="320" y="538.86" as="sourcePoint" />
            <mxPoint x="360" y="538.86" as="targetPoint" />
          </mxGeometry>
        </mxCell>
        <mxCell id="wJcV7WHATaQ0x44lFBmd-11" value="" style="endArrow=classic;html=1;rounded=0;" edge="1" parent="1">
          <mxGeometry width="50" height="50" relative="1" as="geometry">
            <mxPoint x="320" y="578.86" as="sourcePoint" />
            <mxPoint x="360" y="578.86" as="targetPoint" />
          </mxGeometry>
        </mxCell>
      </root>
    </mxGraphModel>
  </diagram>
  <diagram name="AVS_TO_BLOCKRAM_CONVERTER: RTL" id="vOAcRsK10imk7EqOgavm">
    <mxGraphModel dx="2660" dy="2800" grid="1" gridSize="10" guides="1" tooltips="1" connect="1" arrows="1" fold="1" page="1" pageScale="1" pageWidth="850" pageHeight="1100" math="0" shadow="0">
      <root>
        <mxCell id="ZSZgUZBS-1EYGVgvLKAY-0" />
        <mxCell id="ZSZgUZBS-1EYGVgvLKAY-1" parent="ZSZgUZBS-1EYGVgvLKAY-0" />
        <mxCell id="ZSZgUZBS-1EYGVgvLKAY-41" value="&lt;font style=&quot;font-size: 20px;&quot;&gt;blockram_address&lt;/font&gt;" style="text;html=1;strokeColor=none;fillColor=none;align=left;verticalAlign=middle;whiteSpace=wrap;rounded=0;" vertex="1" parent="ZSZgUZBS-1EYGVgvLKAY-1">
          <mxGeometry x="1500" y="85" width="174" height="30" as="geometry" />
        </mxCell>
        <mxCell id="ZSZgUZBS-1EYGVgvLKAY-43" value="&lt;font style=&quot;font-size: 20px;&quot;&gt;blockram_&lt;/font&gt;&lt;font style=&quot;font-size: 20px;&quot;&gt;rden&lt;/font&gt;" style="text;html=1;strokeColor=none;fillColor=none;align=left;verticalAlign=middle;whiteSpace=wrap;rounded=0;" vertex="1" parent="ZSZgUZBS-1EYGVgvLKAY-1">
          <mxGeometry x="1500" y="-576" width="143" height="30" as="geometry" />
        </mxCell>
        <mxCell id="ZSZgUZBS-1EYGVgvLKAY-45" value="&lt;font style=&quot;font-size: 20px;&quot;&gt;blockram_&lt;/font&gt;&lt;font style=&quot;font-size: 20px;&quot;&gt;wren&lt;/font&gt;" style="text;html=1;strokeColor=none;fillColor=none;align=left;verticalAlign=middle;whiteSpace=wrap;rounded=0;" vertex="1" parent="ZSZgUZBS-1EYGVgvLKAY-1">
          <mxGeometry x="1500" y="-535" width="145" height="30" as="geometry" />
        </mxCell>
        <mxCell id="ZSZgUZBS-1EYGVgvLKAY-46" value="&lt;font style=&quot;font-size: 20px;&quot;&gt;blockram_&lt;/font&gt;&lt;font style=&quot;font-size: 20px;&quot;&gt;data&lt;/font&gt;" style="text;html=1;strokeColor=none;fillColor=none;align=left;verticalAlign=middle;whiteSpace=wrap;rounded=0;" vertex="1" parent="ZSZgUZBS-1EYGVgvLKAY-1">
          <mxGeometry x="1500" y="-55" width="140" height="30" as="geometry" />
        </mxCell>
        <mxCell id="ZSZgUZBS-1EYGVgvLKAY-47" value="&lt;font style=&quot;font-size: 20px;&quot;&gt;blockram_&lt;/font&gt;&lt;font style=&quot;font-size: 20px;&quot;&gt;q&lt;/font&gt;" style="text;html=1;strokeColor=none;fillColor=none;align=left;verticalAlign=middle;whiteSpace=wrap;rounded=0;" vertex="1" parent="ZSZgUZBS-1EYGVgvLKAY-1">
          <mxGeometry x="1500" y="295" width="114" height="30" as="geometry" />
        </mxCell>
        <mxCell id="ZSZgUZBS-1EYGVgvLKAY-50" value="&lt;font style=&quot;font-size: 20px;&quot;&gt;avs_address&lt;/font&gt;" style="text;html=1;strokeColor=none;fillColor=none;align=right;verticalAlign=middle;whiteSpace=wrap;rounded=0;" vertex="1" parent="ZSZgUZBS-1EYGVgvLKAY-1">
          <mxGeometry x="90" y="55" width="130" height="30" as="geometry" />
        </mxCell>
        <mxCell id="ZSZgUZBS-1EYGVgvLKAY-52" value="&lt;font style=&quot;font-size: 20px;&quot;&gt;avs_read&lt;/font&gt;" style="text;html=1;strokeColor=none;fillColor=none;align=right;verticalAlign=middle;whiteSpace=wrap;rounded=0;" vertex="1" parent="ZSZgUZBS-1EYGVgvLKAY-1">
          <mxGeometry x="120" y="385" width="100" height="30" as="geometry" />
        </mxCell>
        <mxCell id="ZSZgUZBS-1EYGVgvLKAY-54" value="&lt;font style=&quot;font-size: 20px;&quot;&gt;avs_write&lt;/font&gt;" style="text;html=1;strokeColor=none;fillColor=none;align=right;verticalAlign=middle;whiteSpace=wrap;rounded=0;" vertex="1" parent="ZSZgUZBS-1EYGVgvLKAY-1">
          <mxGeometry x="120" y="425" width="100" height="30" as="geometry" />
        </mxCell>
        <mxCell id="ZSZgUZBS-1EYGVgvLKAY-56" value="&lt;font style=&quot;font-size: 20px;&quot;&gt;avs_waitrequest&lt;/font&gt;" style="text;html=1;strokeColor=none;fillColor=none;align=right;verticalAlign=middle;whiteSpace=wrap;rounded=0;" vertex="1" parent="ZSZgUZBS-1EYGVgvLKAY-1">
          <mxGeometry x="60" y="-576" width="160" height="30" as="geometry" />
        </mxCell>
        <mxCell id="ZSZgUZBS-1EYGVgvLKAY-58" value="&lt;font style=&quot;font-size: 20px;&quot;&gt;avs_readdatavalid&lt;/font&gt;" style="text;html=1;strokeColor=none;fillColor=none;align=right;verticalAlign=middle;whiteSpace=wrap;rounded=0;" vertex="1" parent="ZSZgUZBS-1EYGVgvLKAY-1">
          <mxGeometry x="40" y="-315.5" width="180" height="30" as="geometry" />
        </mxCell>
        <mxCell id="ZSZgUZBS-1EYGVgvLKAY-60" value="&lt;font style=&quot;font-size: 20px;&quot;&gt;avs_writedata&lt;/font&gt;" style="text;html=1;strokeColor=none;fillColor=none;align=right;verticalAlign=middle;whiteSpace=wrap;rounded=0;" vertex="1" parent="ZSZgUZBS-1EYGVgvLKAY-1">
          <mxGeometry x="80" y="-55" width="140" height="30" as="geometry" />
        </mxCell>
        <mxCell id="ZSZgUZBS-1EYGVgvLKAY-62" value="&lt;font style=&quot;font-size: 20px;&quot;&gt;avs_readdata&lt;/font&gt;" style="text;html=1;strokeColor=none;fillColor=none;align=right;verticalAlign=middle;whiteSpace=wrap;rounded=0;" vertex="1" parent="ZSZgUZBS-1EYGVgvLKAY-1">
          <mxGeometry x="80" y="295" width="140" height="30" as="geometry" />
        </mxCell>
        <mxCell id="dh-AqvJFQyK4dla_wSUv-0" value="&lt;font style=&quot;font-size: 20px;&quot;&gt;avs_beginbursttransfer&lt;/font&gt;" style="text;html=1;strokeColor=none;fillColor=none;align=right;verticalAlign=middle;whiteSpace=wrap;rounded=0;" vertex="1" parent="ZSZgUZBS-1EYGVgvLKAY-1">
          <mxGeometry x="10" y="465" width="210" height="30" as="geometry" />
        </mxCell>
        <mxCell id="dh-AqvJFQyK4dla_wSUv-1" value="&lt;font style=&quot;font-size: 20px;&quot;&gt;avs_burstcount&lt;/font&gt;" style="text;html=1;strokeColor=none;fillColor=none;align=right;verticalAlign=middle;whiteSpace=wrap;rounded=0;" vertex="1" parent="ZSZgUZBS-1EYGVgvLKAY-1">
          <mxGeometry x="70" y="-235" width="150" height="30" as="geometry" />
        </mxCell>
        <mxCell id="dh-AqvJFQyK4dla_wSUv-2" value="" style="endArrow=classic;html=1;rounded=0;strokeColor=#FF0000;" edge="1" parent="ZSZgUZBS-1EYGVgvLKAY-1">
          <mxGeometry width="50" height="50" relative="1" as="geometry">
            <mxPoint x="320" y="480" as="sourcePoint" />
            <mxPoint x="320" y="560" as="targetPoint" />
            <Array as="points">
              <mxPoint x="320" y="480" />
            </Array>
          </mxGeometry>
        </mxCell>
        <mxCell id="dh-AqvJFQyK4dla_wSUv-3" value="" style="endArrow=classic;html=1;rounded=0;" edge="1" parent="ZSZgUZBS-1EYGVgvLKAY-1">
          <mxGeometry width="50" height="50" relative="1" as="geometry">
            <mxPoint x="240" y="480" as="sourcePoint" />
            <mxPoint x="320" y="480" as="targetPoint" />
          </mxGeometry>
        </mxCell>
        <mxCell id="dh-AqvJFQyK4dla_wSUv-4" value="" style="endArrow=classic;html=1;rounded=0;strokeColor=#FF0000;" edge="1" parent="ZSZgUZBS-1EYGVgvLKAY-1">
          <mxGeometry width="50" height="50" relative="1" as="geometry">
            <mxPoint x="360" y="440" as="sourcePoint" />
            <mxPoint x="360" y="560" as="targetPoint" />
            <Array as="points">
              <mxPoint x="360" y="440" />
            </Array>
          </mxGeometry>
        </mxCell>
        <mxCell id="dh-AqvJFQyK4dla_wSUv-5" value="" style="endArrow=classic;html=1;rounded=0;" edge="1" parent="ZSZgUZBS-1EYGVgvLKAY-1">
          <mxGeometry width="50" height="50" relative="1" as="geometry">
            <mxPoint x="240" y="440" as="sourcePoint" />
            <mxPoint x="360" y="440" as="targetPoint" />
          </mxGeometry>
        </mxCell>
        <mxCell id="dh-AqvJFQyK4dla_wSUv-6" value="" style="endArrow=classic;html=1;rounded=0;strokeColor=#FF0000;" edge="1" parent="ZSZgUZBS-1EYGVgvLKAY-1">
          <mxGeometry width="50" height="50" relative="1" as="geometry">
            <mxPoint x="400" y="400" as="sourcePoint" />
            <mxPoint x="400" y="560" as="targetPoint" />
            <Array as="points">
              <mxPoint x="400" y="400" />
            </Array>
          </mxGeometry>
        </mxCell>
        <mxCell id="dh-AqvJFQyK4dla_wSUv-7" value="" style="endArrow=classic;html=1;rounded=0;" edge="1" parent="ZSZgUZBS-1EYGVgvLKAY-1">
          <mxGeometry width="50" height="50" relative="1" as="geometry">
            <mxPoint x="240" y="400" as="sourcePoint" />
            <mxPoint x="400" y="400" as="targetPoint" />
          </mxGeometry>
        </mxCell>
        <mxCell id="dh-AqvJFQyK4dla_wSUv-12" value="" style="endArrow=classic;html=1;rounded=0;" edge="1" parent="ZSZgUZBS-1EYGVgvLKAY-1">
          <mxGeometry width="50" height="50" relative="1" as="geometry">
            <mxPoint x="320" y="-561" as="sourcePoint" />
            <mxPoint x="240" y="-561" as="targetPoint" />
          </mxGeometry>
        </mxCell>
        <mxCell id="dh-AqvJFQyK4dla_wSUv-13" value="" style="endArrow=classic;html=1;rounded=0;strokeColor=#00FF00;" edge="1" parent="ZSZgUZBS-1EYGVgvLKAY-1">
          <mxGeometry width="50" height="50" relative="1" as="geometry">
            <mxPoint x="320" y="-641" as="sourcePoint" />
            <mxPoint x="320" y="-561" as="targetPoint" />
          </mxGeometry>
        </mxCell>
        <mxCell id="dh-AqvJFQyK4dla_wSUv-14" value="" style="endArrow=classic;html=1;rounded=0;" edge="1" parent="ZSZgUZBS-1EYGVgvLKAY-1">
          <mxGeometry width="50" height="50" relative="1" as="geometry">
            <mxPoint x="1400" y="-561" as="sourcePoint" />
            <mxPoint x="1480" y="-561" as="targetPoint" />
          </mxGeometry>
        </mxCell>
        <mxCell id="dh-AqvJFQyK4dla_wSUv-15" value="" style="endArrow=classic;html=1;rounded=0;strokeColor=#00FF00;" edge="1" parent="ZSZgUZBS-1EYGVgvLKAY-1">
          <mxGeometry width="50" height="50" relative="1" as="geometry">
            <mxPoint x="1400" y="-641" as="sourcePoint" />
            <mxPoint x="1400" y="-561" as="targetPoint" />
          </mxGeometry>
        </mxCell>
        <mxCell id="dh-AqvJFQyK4dla_wSUv-16" value="" style="endArrow=classic;html=1;rounded=0;" edge="1" parent="ZSZgUZBS-1EYGVgvLKAY-1">
          <mxGeometry width="50" height="50" relative="1" as="geometry">
            <mxPoint x="1360" y="-521" as="sourcePoint" />
            <mxPoint x="1480" y="-521" as="targetPoint" />
          </mxGeometry>
        </mxCell>
        <mxCell id="dh-AqvJFQyK4dla_wSUv-17" value="" style="endArrow=classic;html=1;rounded=0;strokeColor=#00FF00;" edge="1" parent="ZSZgUZBS-1EYGVgvLKAY-1">
          <mxGeometry width="50" height="50" relative="1" as="geometry">
            <mxPoint x="1360" y="-641" as="sourcePoint" />
            <mxPoint x="1360" y="-521.36" as="targetPoint" />
          </mxGeometry>
        </mxCell>
        <mxCell id="6RkiOMif_yTQs2nivoJF-2" style="edgeStyle=orthogonalEdgeStyle;rounded=0;orthogonalLoop=1;jettySize=auto;html=1;exitX=0.5;exitY=1;exitDx=0;exitDy=0;entryX=0;entryY=0.25;entryDx=0;entryDy=0;" edge="1" parent="ZSZgUZBS-1EYGVgvLKAY-1" source="dh-AqvJFQyK4dla_wSUv-20" target="6RkiOMif_yTQs2nivoJF-1">
          <mxGeometry relative="1" as="geometry" />
        </mxCell>
        <mxCell id="dh-AqvJFQyK4dla_wSUv-20" value="" style="rounded=0;whiteSpace=wrap;html=1;" vertex="1" parent="ZSZgUZBS-1EYGVgvLKAY-1">
          <mxGeometry x="500" y="-560" width="300" height="120" as="geometry" />
        </mxCell>
        <mxCell id="dh-AqvJFQyK4dla_wSUv-21" value="&lt;font style=&quot;font-size: 20px;&quot;&gt;BURST_CNT: COUNTER_11BIT&lt;/font&gt;" style="rounded=0;whiteSpace=wrap;html=1;" vertex="1" parent="ZSZgUZBS-1EYGVgvLKAY-1">
          <mxGeometry x="500" y="-600" width="300" height="40" as="geometry" />
        </mxCell>
        <mxCell id="dh-AqvJFQyK4dla_wSUv-22" value="&lt;font style=&quot;font-size: 20px;&quot;&gt;cnt_enable&lt;/font&gt;" style="text;html=1;strokeColor=none;fillColor=none;align=left;verticalAlign=middle;whiteSpace=wrap;rounded=0;" vertex="1" parent="ZSZgUZBS-1EYGVgvLKAY-1">
          <mxGeometry x="505" y="-535" width="110" height="30" as="geometry" />
        </mxCell>
        <mxCell id="dh-AqvJFQyK4dla_wSUv-23" value="&lt;font style=&quot;font-size: 20px;&quot;&gt;cnt_clear_n&lt;/font&gt;" style="text;html=1;strokeColor=none;fillColor=none;align=right;verticalAlign=middle;whiteSpace=wrap;rounded=0;" vertex="1" parent="ZSZgUZBS-1EYGVgvLKAY-1">
          <mxGeometry x="685" y="-535" width="110" height="30" as="geometry" />
        </mxCell>
        <mxCell id="dh-AqvJFQyK4dla_wSUv-24" value="&lt;font style=&quot;font-size: 20px;&quot;&gt;cnt_out&lt;/font&gt;" style="text;html=1;strokeColor=none;fillColor=none;align=center;verticalAlign=middle;whiteSpace=wrap;rounded=0;" vertex="1" parent="ZSZgUZBS-1EYGVgvLKAY-1">
          <mxGeometry x="595" y="-475" width="110" height="30" as="geometry" />
        </mxCell>
        <mxCell id="dh-AqvJFQyK4dla_wSUv-25" value="" style="endArrow=classic;html=1;rounded=0;strokeColor=#00FF00;" edge="1" parent="ZSZgUZBS-1EYGVgvLKAY-1">
          <mxGeometry width="50" height="50" relative="1" as="geometry">
            <mxPoint x="460" y="-640" as="sourcePoint" />
            <mxPoint x="500" y="-520" as="targetPoint" />
            <Array as="points">
              <mxPoint x="460" y="-520" />
            </Array>
          </mxGeometry>
        </mxCell>
        <mxCell id="dh-AqvJFQyK4dla_wSUv-26" value="" style="endArrow=classic;html=1;rounded=0;strokeColor=#00FF00;" edge="1" parent="ZSZgUZBS-1EYGVgvLKAY-1">
          <mxGeometry width="50" height="50" relative="1" as="geometry">
            <mxPoint x="840" y="-640" as="sourcePoint" />
            <mxPoint x="800" y="-520" as="targetPoint" />
            <Array as="points">
              <mxPoint x="840" y="-520" />
            </Array>
          </mxGeometry>
        </mxCell>
        <mxCell id="6RkiOMif_yTQs2nivoJF-0" value="&lt;font style=&quot;font-size: 20px;&quot;&gt;CMPB: COMPARATOR&lt;/font&gt;" style="rounded=0;whiteSpace=wrap;html=1;" vertex="1" parent="ZSZgUZBS-1EYGVgvLKAY-1">
          <mxGeometry x="1200" y="-440" width="240" height="40" as="geometry" />
        </mxCell>
        <mxCell id="6RkiOMif_yTQs2nivoJF-3" style="edgeStyle=orthogonalEdgeStyle;rounded=0;orthogonalLoop=1;jettySize=auto;html=1;exitX=0;exitY=0.75;exitDx=0;exitDy=0;entryX=0;entryY=0.75;entryDx=0;entryDy=0;" edge="1" parent="ZSZgUZBS-1EYGVgvLKAY-1" target="6RkiOMif_yTQs2nivoJF-1">
          <mxGeometry relative="1" as="geometry">
            <mxPoint x="239.99999999999977" y="-220.1428571428571" as="sourcePoint" />
            <Array as="points">
              <mxPoint x="1040" y="-220" />
              <mxPoint x="1040" y="-310" />
            </Array>
          </mxGeometry>
        </mxCell>
        <mxCell id="6RkiOMif_yTQs2nivoJF-7" style="edgeStyle=orthogonalEdgeStyle;rounded=0;orthogonalLoop=1;jettySize=auto;html=1;exitX=0.75;exitY=1;exitDx=0;exitDy=0;strokeColor=#FF0000;" edge="1" parent="ZSZgUZBS-1EYGVgvLKAY-1" source="6RkiOMif_yTQs2nivoJF-1">
          <mxGeometry relative="1" as="geometry">
            <mxPoint x="1380" y="560" as="targetPoint" />
          </mxGeometry>
        </mxCell>
        <mxCell id="6RkiOMif_yTQs2nivoJF-1" value="" style="rounded=0;whiteSpace=wrap;html=1;" vertex="1" parent="ZSZgUZBS-1EYGVgvLKAY-1">
          <mxGeometry x="1200" y="-400" width="240" height="120" as="geometry" />
        </mxCell>
        <mxCell id="6RkiOMif_yTQs2nivoJF-4" value="&lt;font style=&quot;font-size: 20px;&quot;&gt;cmp_in0&lt;/font&gt;" style="text;html=1;strokeColor=none;fillColor=none;align=left;verticalAlign=middle;whiteSpace=wrap;rounded=0;" vertex="1" parent="ZSZgUZBS-1EYGVgvLKAY-1">
          <mxGeometry x="1205" y="-385" width="110" height="30" as="geometry" />
        </mxCell>
        <mxCell id="6RkiOMif_yTQs2nivoJF-5" value="&lt;font style=&quot;font-size: 20px;&quot;&gt;cmp_in1&lt;/font&gt;" style="text;html=1;strokeColor=none;fillColor=none;align=left;verticalAlign=middle;whiteSpace=wrap;rounded=0;" vertex="1" parent="ZSZgUZBS-1EYGVgvLKAY-1">
          <mxGeometry x="1205" y="-325" width="110" height="30" as="geometry" />
        </mxCell>
        <mxCell id="6RkiOMif_yTQs2nivoJF-6" value="&lt;font style=&quot;font-size: 20px;&quot;&gt;cmp_equal&lt;/font&gt;" style="text;html=1;strokeColor=none;fillColor=none;align=center;verticalAlign=middle;whiteSpace=wrap;rounded=0;" vertex="1" parent="ZSZgUZBS-1EYGVgvLKAY-1">
          <mxGeometry x="1320" y="-315.5" width="110" height="30" as="geometry" />
        </mxCell>
        <mxCell id="6RkiOMif_yTQs2nivoJF-9" value="" style="endArrow=classic;html=1;rounded=0;strokeColor=#00FF00;entryX=0.5;entryY=0;entryDx=0;entryDy=0;" edge="1" parent="ZSZgUZBS-1EYGVgvLKAY-1" target="ZFkDR4kORq6UwaXPi3wD-0">
          <mxGeometry width="50" height="50" relative="1" as="geometry">
            <mxPoint x="360" y="-641" as="sourcePoint" />
            <mxPoint x="360" y="-360" as="targetPoint" />
          </mxGeometry>
        </mxCell>
        <mxCell id="MwYjjthvd5z8087zU6yp-6" style="edgeStyle=orthogonalEdgeStyle;rounded=0;orthogonalLoop=1;jettySize=auto;html=1;entryX=0.25;entryY=1;entryDx=0;entryDy=0;" edge="1" parent="ZSZgUZBS-1EYGVgvLKAY-1" target="7uRZ57XhIflqWo5wDMCJ-0">
          <mxGeometry relative="1" as="geometry">
            <mxPoint x="240" y="70" as="sourcePoint" />
          </mxGeometry>
        </mxCell>
        <mxCell id="MwYjjthvd5z8087zU6yp-9" style="edgeStyle=orthogonalEdgeStyle;rounded=0;orthogonalLoop=1;jettySize=auto;html=1;exitX=1;exitY=0.5;exitDx=0;exitDy=0;" edge="1" parent="ZSZgUZBS-1EYGVgvLKAY-1" source="6RkiOMif_yTQs2nivoJF-10">
          <mxGeometry relative="1" as="geometry">
            <mxPoint x="1480" y="100" as="targetPoint" />
          </mxGeometry>
        </mxCell>
        <mxCell id="6RkiOMif_yTQs2nivoJF-10" value="&lt;font style=&quot;font-size: 20px;&quot;&gt;ADDRESS_REG: REGISTER&lt;/font&gt;" style="rounded=0;whiteSpace=wrap;html=1;" vertex="1" parent="ZSZgUZBS-1EYGVgvLKAY-1">
          <mxGeometry x="490" y="70" width="320" height="60" as="geometry" />
        </mxCell>
        <mxCell id="hvERZh1Dsk5b5qUiZRAJ-0" value="" style="triangle;whiteSpace=wrap;html=1;" vertex="1" parent="ZSZgUZBS-1EYGVgvLKAY-1">
          <mxGeometry x="500" y="-460" width="20" height="20" as="geometry" />
        </mxCell>
        <mxCell id="MwYjjthvd5z8087zU6yp-1" value="" style="triangle;whiteSpace=wrap;html=1;direction=east;" vertex="1" parent="ZSZgUZBS-1EYGVgvLKAY-1">
          <mxGeometry x="490" y="110" width="20" height="20" as="geometry" />
        </mxCell>
        <mxCell id="MwYjjthvd5z8087zU6yp-7" style="edgeStyle=orthogonalEdgeStyle;rounded=0;orthogonalLoop=1;jettySize=auto;html=1;exitX=0;exitY=0.5;exitDx=0;exitDy=0;entryX=0;entryY=0.5;entryDx=0;entryDy=0;" edge="1" parent="ZSZgUZBS-1EYGVgvLKAY-1" target="MwYjjthvd5z8087zU6yp-2">
          <mxGeometry relative="1" as="geometry">
            <mxPoint x="240" y="-40" as="sourcePoint" />
          </mxGeometry>
        </mxCell>
        <mxCell id="MwYjjthvd5z8087zU6yp-10" style="edgeStyle=orthogonalEdgeStyle;rounded=0;orthogonalLoop=1;jettySize=auto;html=1;exitX=1;exitY=0.5;exitDx=0;exitDy=0;" edge="1" parent="ZSZgUZBS-1EYGVgvLKAY-1" source="MwYjjthvd5z8087zU6yp-2">
          <mxGeometry relative="1" as="geometry">
            <mxPoint x="1480" y="-40" as="targetPoint" />
          </mxGeometry>
        </mxCell>
        <mxCell id="MwYjjthvd5z8087zU6yp-2" value="&lt;font style=&quot;font-size: 20px;&quot;&gt;WRITEDATA_REG: REGISTER&lt;/font&gt;" style="rounded=0;whiteSpace=wrap;html=1;" vertex="1" parent="ZSZgUZBS-1EYGVgvLKAY-1">
          <mxGeometry x="490" y="-70" width="320" height="60" as="geometry" />
        </mxCell>
        <mxCell id="MwYjjthvd5z8087zU6yp-3" value="" style="triangle;whiteSpace=wrap;html=1;direction=east;" vertex="1" parent="ZSZgUZBS-1EYGVgvLKAY-1">
          <mxGeometry x="490" y="-30" width="20" height="20" as="geometry" />
        </mxCell>
        <mxCell id="MwYjjthvd5z8087zU6yp-11" style="edgeStyle=orthogonalEdgeStyle;rounded=0;orthogonalLoop=1;jettySize=auto;html=1;" edge="1" parent="ZSZgUZBS-1EYGVgvLKAY-1">
          <mxGeometry relative="1" as="geometry">
            <mxPoint x="240" y="310" as="targetPoint" />
            <mxPoint x="1480" y="310" as="sourcePoint" />
          </mxGeometry>
        </mxCell>
        <mxCell id="MwYjjthvd5z8087zU6yp-12" value="" style="endArrow=classic;html=1;rounded=0;strokeColor=#00FF00;entryX=1;entryY=0.25;entryDx=0;entryDy=0;" edge="1" parent="ZSZgUZBS-1EYGVgvLKAY-1" target="MwYjjthvd5z8087zU6yp-2">
          <mxGeometry width="50" height="50" relative="1" as="geometry">
            <mxPoint x="920" y="-640" as="sourcePoint" />
            <mxPoint x="830" y="-55" as="targetPoint" />
            <Array as="points">
              <mxPoint x="920" y="-55" />
            </Array>
          </mxGeometry>
        </mxCell>
        <mxCell id="MwYjjthvd5z8087zU6yp-13" value="" style="endArrow=classic;html=1;rounded=0;strokeColor=#00FF00;entryX=1;entryY=0.25;entryDx=0;entryDy=0;" edge="1" parent="ZSZgUZBS-1EYGVgvLKAY-1" target="6RkiOMif_yTQs2nivoJF-10">
          <mxGeometry width="50" height="50" relative="1" as="geometry">
            <mxPoint x="960" y="-640" as="sourcePoint" />
            <mxPoint x="830" y="80" as="targetPoint" />
            <Array as="points">
              <mxPoint x="960" y="85" />
            </Array>
          </mxGeometry>
        </mxCell>
        <mxCell id="MwYjjthvd5z8087zU6yp-15" value="&lt;font style=&quot;font-size: 20px;&quot;&gt;readdatavalid&lt;/font&gt;" style="text;html=1;strokeColor=none;fillColor=none;align=right;verticalAlign=middle;whiteSpace=wrap;rounded=0;rotation=90;" vertex="1" parent="ZSZgUZBS-1EYGVgvLKAY-1">
          <mxGeometry x="270" y="-765" width="180" height="30" as="geometry" />
        </mxCell>
        <mxCell id="MwYjjthvd5z8087zU6yp-16" value="&lt;font style=&quot;font-size: 20px;&quot;&gt;waitrequest&lt;/font&gt;" style="text;html=1;strokeColor=none;fillColor=none;align=right;verticalAlign=middle;whiteSpace=wrap;rounded=0;rotation=90;" vertex="1" parent="ZSZgUZBS-1EYGVgvLKAY-1">
          <mxGeometry x="240" y="-756" width="160" height="30" as="geometry" />
        </mxCell>
        <mxCell id="MwYjjthvd5z8087zU6yp-17" value="&lt;font style=&quot;font-size: 20px;&quot;&gt;cnt_enable&lt;/font&gt;" style="text;html=1;strokeColor=none;fillColor=none;align=right;verticalAlign=middle;whiteSpace=wrap;rounded=0;rotation=90;" vertex="1" parent="ZSZgUZBS-1EYGVgvLKAY-1">
          <mxGeometry x="380" y="-756" width="160" height="30" as="geometry" />
        </mxCell>
        <mxCell id="MwYjjthvd5z8087zU6yp-18" value="&lt;font style=&quot;font-size: 20px;&quot;&gt;cnt_clear_n&lt;/font&gt;" style="text;html=1;strokeColor=none;fillColor=none;align=right;verticalAlign=middle;whiteSpace=wrap;rounded=0;rotation=90;" vertex="1" parent="ZSZgUZBS-1EYGVgvLKAY-1">
          <mxGeometry x="760" y="-756" width="160" height="30" as="geometry" />
        </mxCell>
        <mxCell id="MwYjjthvd5z8087zU6yp-19" value="&lt;font style=&quot;font-size: 20px;&quot;&gt;address_reg_enable&lt;/font&gt;" style="text;html=1;strokeColor=none;fillColor=none;align=right;verticalAlign=middle;whiteSpace=wrap;rounded=0;rotation=90;" vertex="1" parent="ZSZgUZBS-1EYGVgvLKAY-1">
          <mxGeometry x="840" y="-756" width="160" height="30" as="geometry" />
        </mxCell>
        <mxCell id="MwYjjthvd5z8087zU6yp-21" value="&lt;font style=&quot;font-size: 20px;&quot;&gt;writedata_reg_enable&lt;/font&gt;" style="text;html=1;strokeColor=none;fillColor=none;align=right;verticalAlign=middle;whiteSpace=wrap;rounded=0;rotation=90;" vertex="1" parent="ZSZgUZBS-1EYGVgvLKAY-1">
          <mxGeometry x="880" y="-756" width="160" height="30" as="geometry" />
        </mxCell>
        <mxCell id="MwYjjthvd5z8087zU6yp-22" value="&lt;font style=&quot;font-size: 20px;&quot;&gt;rden&lt;/font&gt;" style="text;html=1;strokeColor=none;fillColor=none;align=right;verticalAlign=middle;whiteSpace=wrap;rounded=0;rotation=90;" vertex="1" parent="ZSZgUZBS-1EYGVgvLKAY-1">
          <mxGeometry x="1370" y="-708" width="63" height="30" as="geometry" />
        </mxCell>
        <mxCell id="MwYjjthvd5z8087zU6yp-23" value="&lt;font style=&quot;font-size: 20px;&quot;&gt;wren&lt;/font&gt;" style="text;html=1;strokeColor=none;fillColor=none;align=right;verticalAlign=middle;whiteSpace=wrap;rounded=0;rotation=90;" vertex="1" parent="ZSZgUZBS-1EYGVgvLKAY-1">
          <mxGeometry x="1330" y="-708" width="63" height="30" as="geometry" />
        </mxCell>
        <mxCell id="MwYjjthvd5z8087zU6yp-24" value="&lt;font style=&quot;font-size: 20px;&quot;&gt;beginbursttransfer&lt;/font&gt;" style="text;html=1;strokeColor=none;fillColor=none;align=left;verticalAlign=middle;whiteSpace=wrap;rounded=0;rotation=90;" vertex="1" parent="ZSZgUZBS-1EYGVgvLKAY-1">
          <mxGeometry x="215" y="670" width="210" height="30" as="geometry" />
        </mxCell>
        <mxCell id="MwYjjthvd5z8087zU6yp-25" value="&lt;font style=&quot;font-size: 20px;&quot;&gt;write&lt;/font&gt;" style="text;html=1;strokeColor=none;fillColor=none;align=left;verticalAlign=middle;whiteSpace=wrap;rounded=0;rotation=90;" vertex="1" parent="ZSZgUZBS-1EYGVgvLKAY-1">
          <mxGeometry x="310" y="615" width="100" height="30" as="geometry" />
        </mxCell>
        <mxCell id="MwYjjthvd5z8087zU6yp-26" value="&lt;font style=&quot;font-size: 20px;&quot;&gt;read&lt;/font&gt;" style="text;html=1;strokeColor=none;fillColor=none;align=left;verticalAlign=middle;whiteSpace=wrap;rounded=0;rotation=90;" vertex="1" parent="ZSZgUZBS-1EYGVgvLKAY-1">
          <mxGeometry x="350" y="615" width="100" height="30" as="geometry" />
        </mxCell>
        <mxCell id="MwYjjthvd5z8087zU6yp-27" value="&lt;font style=&quot;font-size: 20px;&quot;&gt;burstend&lt;/font&gt;" style="text;html=1;strokeColor=none;fillColor=none;align=left;verticalAlign=middle;whiteSpace=wrap;rounded=0;rotation=90;" vertex="1" parent="ZSZgUZBS-1EYGVgvLKAY-1">
          <mxGeometry x="1330" y="615" width="100" height="30" as="geometry" />
        </mxCell>
        <mxCell id="ZFkDR4kORq6UwaXPi3wD-6" style="edgeStyle=orthogonalEdgeStyle;rounded=0;orthogonalLoop=1;jettySize=auto;html=1;entryX=0.5;entryY=0;entryDx=0;entryDy=0;" edge="1" parent="ZSZgUZBS-1EYGVgvLKAY-1" source="ZFkDR4kORq6UwaXPi3wD-0" target="ZFkDR4kORq6UwaXPi3wD-2">
          <mxGeometry relative="1" as="geometry" />
        </mxCell>
        <mxCell id="ZFkDR4kORq6UwaXPi3wD-0" value="&lt;font style=&quot;font-size: 20px;&quot;&gt;PIPE1: REGISTER&lt;/font&gt;" style="rounded=0;whiteSpace=wrap;html=1;" vertex="1" parent="ZSZgUZBS-1EYGVgvLKAY-1">
          <mxGeometry x="270" y="-460.5" width="180" height="40" as="geometry" />
        </mxCell>
        <mxCell id="ZFkDR4kORq6UwaXPi3wD-1" value="" style="triangle;whiteSpace=wrap;html=1;direction=east;" vertex="1" parent="ZSZgUZBS-1EYGVgvLKAY-1">
          <mxGeometry x="270" y="-430.5" width="10" height="10" as="geometry" />
        </mxCell>
        <mxCell id="ZFkDR4kORq6UwaXPi3wD-2" value="&lt;font style=&quot;font-size: 20px;&quot;&gt;PIPE2: REGISTER&lt;/font&gt;" style="rounded=0;whiteSpace=wrap;html=1;" vertex="1" parent="ZSZgUZBS-1EYGVgvLKAY-1">
          <mxGeometry x="270" y="-380.5" width="180" height="40" as="geometry" />
        </mxCell>
        <mxCell id="ZFkDR4kORq6UwaXPi3wD-3" value="" style="triangle;whiteSpace=wrap;html=1;direction=east;" vertex="1" parent="ZSZgUZBS-1EYGVgvLKAY-1">
          <mxGeometry x="270" y="-350.5" width="10" height="10" as="geometry" />
        </mxCell>
        <mxCell id="ZFkDR4kORq6UwaXPi3wD-8" style="edgeStyle=orthogonalEdgeStyle;rounded=0;orthogonalLoop=1;jettySize=auto;html=1;exitX=0.5;exitY=1;exitDx=0;exitDy=0;" edge="1" parent="ZSZgUZBS-1EYGVgvLKAY-1" source="ZFkDR4kORq6UwaXPi3wD-2">
          <mxGeometry relative="1" as="geometry">
            <mxPoint x="240" y="-300.5" as="targetPoint" />
            <mxPoint x="360" y="-210.5" as="sourcePoint" />
            <Array as="points">
              <mxPoint x="360" y="-300.5" />
            </Array>
          </mxGeometry>
        </mxCell>
        <mxCell id="7uRZ57XhIflqWo5wDMCJ-1" style="edgeStyle=orthogonalEdgeStyle;rounded=0;orthogonalLoop=1;jettySize=auto;html=1;exitX=0.5;exitY=0;exitDx=0;exitDy=0;entryX=0;entryY=0.5;entryDx=0;entryDy=0;" edge="1" parent="ZSZgUZBS-1EYGVgvLKAY-1" source="7uRZ57XhIflqWo5wDMCJ-0" target="6RkiOMif_yTQs2nivoJF-10">
          <mxGeometry relative="1" as="geometry" />
        </mxCell>
        <mxCell id="7uRZ57XhIflqWo5wDMCJ-0" value="" style="shape=trapezoid;perimeter=trapezoidPerimeter;whiteSpace=wrap;html=1;fixedSize=1;rotation=90;" vertex="1" parent="ZSZgUZBS-1EYGVgvLKAY-1">
          <mxGeometry x="300" y="80" width="120" height="40" as="geometry" />
        </mxCell>
        <mxCell id="OeR4MNAQ9RzKYgKn-mo--0" style="edgeStyle=orthogonalEdgeStyle;rounded=0;orthogonalLoop=1;jettySize=auto;html=1;exitX=0;exitY=0.5;exitDx=0;exitDy=0;entryX=0.75;entryY=1;entryDx=0;entryDy=0;" edge="1" parent="ZSZgUZBS-1EYGVgvLKAY-1" source="7uRZ57XhIflqWo5wDMCJ-4" target="7uRZ57XhIflqWo5wDMCJ-0">
          <mxGeometry relative="1" as="geometry">
            <Array as="points">
              <mxPoint x="280" y="210" />
              <mxPoint x="280" y="130" />
            </Array>
          </mxGeometry>
        </mxCell>
        <mxCell id="OeR4MNAQ9RzKYgKn-mo--1" style="edgeStyle=orthogonalEdgeStyle;rounded=0;orthogonalLoop=1;jettySize=auto;html=1;entryX=1;entryY=0.5;entryDx=0;entryDy=0;startArrow=oval;startFill=1;" edge="1" parent="ZSZgUZBS-1EYGVgvLKAY-1" target="7uRZ57XhIflqWo5wDMCJ-4">
          <mxGeometry relative="1" as="geometry">
            <mxPoint x="1080" y="100" as="sourcePoint" />
            <Array as="points">
              <mxPoint x="1080" y="210" />
            </Array>
          </mxGeometry>
        </mxCell>
        <mxCell id="7uRZ57XhIflqWo5wDMCJ-4" value="&lt;font style=&quot;font-size: 20px;&quot;&gt;ADDRESS_INC: INCREMENTER&lt;/font&gt;" style="rounded=0;whiteSpace=wrap;html=1;" vertex="1" parent="ZSZgUZBS-1EYGVgvLKAY-1">
          <mxGeometry x="490" y="180" width="320" height="60" as="geometry" />
        </mxCell>
        <mxCell id="OeR4MNAQ9RzKYgKn-mo--4" value="" style="endArrow=classic;html=1;rounded=0;strokeColor=#00FF00;entryX=0;entryY=0.5;entryDx=0;entryDy=0;" edge="1" parent="ZSZgUZBS-1EYGVgvLKAY-1" target="7uRZ57XhIflqWo5wDMCJ-0">
          <mxGeometry width="50" height="50" relative="1" as="geometry">
            <mxPoint x="880" y="-640" as="sourcePoint" />
            <mxPoint x="770" y="-60" as="targetPoint" />
            <Array as="points">
              <mxPoint x="880" y="-120" />
              <mxPoint x="360" y="-120" />
            </Array>
          </mxGeometry>
        </mxCell>
        <mxCell id="OeR4MNAQ9RzKYgKn-mo--5" value="&lt;font style=&quot;font-size: 20px;&quot;&gt;0&lt;/font&gt;" style="text;html=1;align=center;verticalAlign=middle;resizable=0;points=[];autosize=1;strokeColor=none;fillColor=none;" vertex="1" parent="ZSZgUZBS-1EYGVgvLKAY-1">
          <mxGeometry x="335" y="53" width="30" height="40" as="geometry" />
        </mxCell>
        <mxCell id="OeR4MNAQ9RzKYgKn-mo--6" value="&lt;font style=&quot;font-size: 20px;&quot;&gt;1&lt;/font&gt;" style="text;html=1;align=center;verticalAlign=middle;resizable=0;points=[];autosize=1;strokeColor=none;fillColor=none;" vertex="1" parent="ZSZgUZBS-1EYGVgvLKAY-1">
          <mxGeometry x="335" y="113" width="30" height="40" as="geometry" />
        </mxCell>
        <mxCell id="OeR4MNAQ9RzKYgKn-mo--7" value="&lt;font style=&quot;font-size: 20px;&quot;&gt;address_sel&lt;/font&gt;" style="text;html=1;strokeColor=none;fillColor=none;align=right;verticalAlign=middle;whiteSpace=wrap;rounded=0;rotation=90;" vertex="1" parent="ZSZgUZBS-1EYGVgvLKAY-1">
          <mxGeometry x="800" y="-756" width="160" height="30" as="geometry" />
        </mxCell>
        <mxCell id="ehDYvq-mJKr8ZSAhdp44-0" value="" style="endArrow=classic;html=1;rounded=0;strokeColor=#00FF00;entryX=1;entryY=0.25;entryDx=0;entryDy=0;" edge="1" parent="ZSZgUZBS-1EYGVgvLKAY-1" target="7uRZ57XhIflqWo5wDMCJ-4">
          <mxGeometry width="50" height="50" relative="1" as="geometry">
            <mxPoint x="1000" y="-640" as="sourcePoint" />
            <mxPoint x="770" y="190" as="targetPoint" />
            <Array as="points">
              <mxPoint x="1000" y="195" />
            </Array>
          </mxGeometry>
        </mxCell>
        <mxCell id="ehDYvq-mJKr8ZSAhdp44-1" value="&lt;font style=&quot;font-size: 20px;&quot;&gt;inc_disable&lt;/font&gt;" style="text;html=1;strokeColor=none;fillColor=none;align=right;verticalAlign=middle;whiteSpace=wrap;rounded=0;rotation=90;" vertex="1" parent="ZSZgUZBS-1EYGVgvLKAY-1">
          <mxGeometry x="920" y="-756" width="160" height="30" as="geometry" />
        </mxCell>
        <mxCell id="O9QYPgbJti6yh3ay5mr--1" value="&lt;font style=&quot;font-size: 20px;&quot;&gt;CMP1: COMPARATOR&lt;/font&gt;" style="rounded=0;whiteSpace=wrap;html=1;" vertex="1" parent="ZSZgUZBS-1EYGVgvLKAY-1">
          <mxGeometry x="1100" y="-240" width="240" height="40" as="geometry" />
        </mxCell>
        <mxCell id="O9QYPgbJti6yh3ay5mr--6" style="edgeStyle=orthogonalEdgeStyle;rounded=0;orthogonalLoop=1;jettySize=auto;html=1;exitX=0;exitY=0.25;exitDx=0;exitDy=0;entryX=0;entryY=0.25;entryDx=0;entryDy=0;startArrow=oval;startFill=1;" edge="1" parent="ZSZgUZBS-1EYGVgvLKAY-1" target="O9QYPgbJti6yh3ay5mr--2">
          <mxGeometry relative="1" as="geometry">
            <mxPoint x="1040" y="-220" as="sourcePoint" />
            <Array as="points">
              <mxPoint x="1040" y="-170" />
            </Array>
          </mxGeometry>
        </mxCell>
        <mxCell id="wMKxp9MxgXJ5CdrQa85G-0" style="edgeStyle=orthogonalEdgeStyle;rounded=0;orthogonalLoop=1;jettySize=auto;html=1;exitX=0;exitY=0.75;exitDx=0;exitDy=0;entryX=0;entryY=0.75;entryDx=0;entryDy=0;" edge="1" parent="ZSZgUZBS-1EYGVgvLKAY-1" target="O9QYPgbJti6yh3ay5mr--2">
          <mxGeometry relative="1" as="geometry">
            <mxPoint x="1060" y="-109.66666666666674" as="sourcePoint" />
            <Array as="points">
              <mxPoint x="1081" y="-110" />
            </Array>
          </mxGeometry>
        </mxCell>
        <mxCell id="O9QYPgbJti6yh3ay5mr--2" value="" style="rounded=0;whiteSpace=wrap;html=1;" vertex="1" parent="ZSZgUZBS-1EYGVgvLKAY-1">
          <mxGeometry x="1100" y="-200" width="240" height="120" as="geometry" />
        </mxCell>
        <mxCell id="O9QYPgbJti6yh3ay5mr--3" value="&lt;font style=&quot;font-size: 20px;&quot;&gt;cmp_in0&lt;/font&gt;" style="text;html=1;strokeColor=none;fillColor=none;align=left;verticalAlign=middle;whiteSpace=wrap;rounded=0;" vertex="1" parent="ZSZgUZBS-1EYGVgvLKAY-1">
          <mxGeometry x="1105" y="-185" width="110" height="30" as="geometry" />
        </mxCell>
        <mxCell id="O9QYPgbJti6yh3ay5mr--4" value="&lt;font style=&quot;font-size: 20px;&quot;&gt;cmp_in1&lt;/font&gt;" style="text;html=1;strokeColor=none;fillColor=none;align=left;verticalAlign=middle;whiteSpace=wrap;rounded=0;" vertex="1" parent="ZSZgUZBS-1EYGVgvLKAY-1">
          <mxGeometry x="1105" y="-125" width="110" height="30" as="geometry" />
        </mxCell>
        <mxCell id="O9QYPgbJti6yh3ay5mr--5" value="&lt;font style=&quot;font-size: 20px;&quot;&gt;cmp_equal&lt;/font&gt;" style="text;html=1;strokeColor=none;fillColor=none;align=center;verticalAlign=middle;whiteSpace=wrap;rounded=0;" vertex="1" parent="ZSZgUZBS-1EYGVgvLKAY-1">
          <mxGeometry x="1224" y="-115" width="110" height="30" as="geometry" />
        </mxCell>
        <mxCell id="O9QYPgbJti6yh3ay5mr--7" style="edgeStyle=orthogonalEdgeStyle;rounded=0;orthogonalLoop=1;jettySize=auto;html=1;exitX=0.75;exitY=1;exitDx=0;exitDy=0;strokeColor=#FF0000;" edge="1" parent="ZSZgUZBS-1EYGVgvLKAY-1">
          <mxGeometry relative="1" as="geometry">
            <mxPoint x="1278.29" y="560" as="targetPoint" />
            <mxPoint x="1278.58" y="-80" as="sourcePoint" />
          </mxGeometry>
        </mxCell>
        <mxCell id="O9QYPgbJti6yh3ay5mr--8" value="&lt;font style=&quot;font-size: 20px;&quot;&gt;false_burst&lt;/font&gt;" style="text;html=1;strokeColor=none;fillColor=none;align=left;verticalAlign=middle;whiteSpace=wrap;rounded=0;rotation=90;" vertex="1" parent="ZSZgUZBS-1EYGVgvLKAY-1">
          <mxGeometry x="1229" y="615" width="100" height="30" as="geometry" />
        </mxCell>
        <mxCell id="wMKxp9MxgXJ5CdrQa85G-1" value="&lt;font style=&quot;font-size: 20px;&quot;&gt;1&lt;/font&gt;" style="text;html=1;align=center;verticalAlign=middle;resizable=0;points=[];autosize=1;strokeColor=none;fillColor=none;" vertex="1" parent="ZSZgUZBS-1EYGVgvLKAY-1">
          <mxGeometry x="1030" y="-130" width="30" height="40" as="geometry" />
        </mxCell>
      </root>
    </mxGraphModel>
  </diagram>
  <diagram id="vuvr-x9UL1TBioMI8a08" name="AVM_TO_BLOCKRAM_CONVERTER: FSM">
    <mxGraphModel dx="5505" dy="2975" grid="1" gridSize="10" guides="1" tooltips="1" connect="1" arrows="1" fold="1" page="1" pageScale="1" pageWidth="850" pageHeight="1100" math="0" shadow="0">
      <root>
        <mxCell id="0" />
        <mxCell id="1" parent="0" />
        <mxCell id="e3K_jpvlUAZGzUgC67zU-6" style="edgeStyle=orthogonalEdgeStyle;rounded=0;orthogonalLoop=1;jettySize=auto;html=1;exitX=0.5;exitY=1;exitDx=0;exitDy=0;" parent="1" source="VhY47335ThIellnP8vaE-1" edge="1">
          <mxGeometry relative="1" as="geometry">
            <mxPoint x="599.97" y="520" as="targetPoint" />
            <Array as="points">
              <mxPoint x="599.97" y="500" />
              <mxPoint x="599.97" y="500" />
            </Array>
          </mxGeometry>
        </mxCell>
        <mxCell id="VhY47335ThIellnP8vaE-1" value="&lt;div style=&quot;font-size: 20px;&quot;&gt;&lt;font style=&quot;font-size: 20px;&quot;&gt;writedata_reg_enable&lt;/font&gt;&lt;/div&gt;&lt;div style=&quot;font-size: 20px;&quot;&gt;&lt;font style=&quot;font-size: 20px;&quot;&gt;address_reg_enable&lt;font style=&quot;font-size: 20px;&quot;&gt;&lt;br&gt;&lt;/font&gt;&lt;/font&gt;&lt;/div&gt;" style="rounded=0;whiteSpace=wrap;html=1;" parent="1" vertex="1">
          <mxGeometry x="479.97" y="400" width="240" height="60" as="geometry" />
        </mxCell>
        <mxCell id="NfLQxouftq1jA5gYRP5H-1" style="edgeStyle=orthogonalEdgeStyle;rounded=0;orthogonalLoop=1;jettySize=auto;html=1;entryX=0.5;entryY=0;entryDx=0;entryDy=0;" edge="1" parent="1" target="VhY47335ThIellnP8vaE-2">
          <mxGeometry relative="1" as="geometry">
            <mxPoint x="599.97" y="300" as="sourcePoint" />
            <Array as="points">
              <mxPoint x="599.97" y="300" />
            </Array>
          </mxGeometry>
        </mxCell>
        <mxCell id="VhY47335ThIellnP8vaE-2" value="&lt;font style=&quot;font-size: 20px;&quot;&gt;IDLE&lt;/font&gt;" style="rounded=0;whiteSpace=wrap;html=1;" parent="1" vertex="1">
          <mxGeometry x="479.97" y="360" width="240" height="40" as="geometry" />
        </mxCell>
        <mxCell id="e3K_jpvlUAZGzUgC67zU-2" value="0" style="edgeStyle=orthogonalEdgeStyle;rounded=0;orthogonalLoop=1;jettySize=auto;html=1;exitX=1;exitY=0.5;exitDx=0;exitDy=0;entryX=0;entryY=0.5;entryDx=0;entryDy=0;" parent="1" source="w5SIX4CYdtg85TaAh0DZ-1" target="e3K_jpvlUAZGzUgC67zU-1" edge="1">
          <mxGeometry x="-0.75" relative="1" as="geometry">
            <mxPoint as="offset" />
          </mxGeometry>
        </mxCell>
        <mxCell id="V8YZ5hTkk5WyEVAx0g9a-1" value="1" style="edgeStyle=orthogonalEdgeStyle;rounded=0;orthogonalLoop=1;jettySize=auto;html=1;exitX=0.5;exitY=1;exitDx=0;exitDy=0;entryX=0.5;entryY=0;entryDx=0;entryDy=0;" parent="1" source="w5SIX4CYdtg85TaAh0DZ-1" target="QC0Fhj5VWblVltqkyniX-2" edge="1">
          <mxGeometry x="-0.6842" relative="1" as="geometry">
            <mxPoint as="offset" />
          </mxGeometry>
        </mxCell>
        <mxCell id="y8BEp6VOh7PGQdKIOAHJ-6" style="edgeStyle=orthogonalEdgeStyle;rounded=0;orthogonalLoop=1;jettySize=auto;html=1;exitX=0.5;exitY=0;exitDx=0;exitDy=0;entryX=0.5;entryY=0;entryDx=0;entryDy=0;" parent="1" target="NfLQxouftq1jA5gYRP5H-2" edge="1">
          <mxGeometry relative="1" as="geometry">
            <mxPoint x="600.4047826086958" y="520" as="sourcePoint" />
            <Array as="points">
              <mxPoint x="599.97" y="540" />
            </Array>
            <mxPoint x="629.97" y="570" as="targetPoint" />
          </mxGeometry>
        </mxCell>
        <mxCell id="w5SIX4CYdtg85TaAh0DZ-1" value="&lt;font style=&quot;font-size: 20px;&quot;&gt;read&lt;/font&gt;" style="rhombus;whiteSpace=wrap;html=1;" parent="1" vertex="1">
          <mxGeometry x="529.97" y="780" width="140" height="80" as="geometry" />
        </mxCell>
        <mxCell id="e3K_jpvlUAZGzUgC67zU-3" value="0" style="edgeStyle=orthogonalEdgeStyle;rounded=0;orthogonalLoop=1;jettySize=auto;html=1;exitX=0.5;exitY=0;exitDx=0;exitDy=0;" parent="1" source="e3K_jpvlUAZGzUgC67zU-1" edge="1">
          <mxGeometry x="-0.9143" relative="1" as="geometry">
            <mxPoint x="599.97" y="300" as="targetPoint" />
            <mxPoint as="offset" />
            <Array as="points">
              <mxPoint x="879.97" y="300" />
            </Array>
          </mxGeometry>
        </mxCell>
        <mxCell id="y8BEp6VOh7PGQdKIOAHJ-9" value="1" style="edgeStyle=orthogonalEdgeStyle;rounded=0;orthogonalLoop=1;jettySize=auto;html=1;exitX=0.5;exitY=1;exitDx=0;exitDy=0;entryX=0.5;entryY=0;entryDx=0;entryDy=0;" parent="1" source="e3K_jpvlUAZGzUgC67zU-1" target="y8BEp6VOh7PGQdKIOAHJ-8" edge="1">
          <mxGeometry x="-0.6842" relative="1" as="geometry">
            <mxPoint as="offset" />
          </mxGeometry>
        </mxCell>
        <mxCell id="e3K_jpvlUAZGzUgC67zU-1" value="&lt;font style=&quot;font-size: 20px;&quot;&gt;write&lt;/font&gt;" style="rhombus;whiteSpace=wrap;html=1;" parent="1" vertex="1">
          <mxGeometry x="809.97" y="780" width="140" height="80" as="geometry" />
        </mxCell>
        <mxCell id="3q0baK_1dVWjSDw66UBx-7" style="edgeStyle=orthogonalEdgeStyle;rounded=0;orthogonalLoop=1;jettySize=auto;html=1;exitX=1;exitY=0.5;exitDx=0;exitDy=0;" edge="1" parent="1" source="LNQT6dG6mWMsPuXykQ5o-1" target="3q0baK_1dVWjSDw66UBx-4">
          <mxGeometry relative="1" as="geometry" />
        </mxCell>
        <mxCell id="LNQT6dG6mWMsPuXykQ5o-1" value="&lt;div&gt;&lt;font style=&quot;font-size: 20px;&quot;&gt;cnt_clear_n&lt;/font&gt;&lt;/div&gt;&lt;font style=&quot;font-size: 20px;&quot;&gt;waitrequest&lt;/font&gt;" style="rounded=0;whiteSpace=wrap;html=1;" parent="1" vertex="1">
          <mxGeometry x="-120" y="180" width="240" height="60" as="geometry" />
        </mxCell>
        <mxCell id="LNQT6dG6mWMsPuXykQ5o-2" style="edgeStyle=orthogonalEdgeStyle;rounded=0;orthogonalLoop=1;jettySize=auto;html=1;entryX=0.5;entryY=0;entryDx=0;entryDy=0;dashed=1;" parent="1" target="LNQT6dG6mWMsPuXykQ5o-3" edge="1">
          <mxGeometry relative="1" as="geometry">
            <mxPoint y="80" as="sourcePoint" />
            <Array as="points" />
          </mxGeometry>
        </mxCell>
        <mxCell id="LNQT6dG6mWMsPuXykQ5o-3" value="&lt;font style=&quot;font-size: 20px;&quot;&gt;RESET&lt;/font&gt;" style="rounded=0;whiteSpace=wrap;html=1;" parent="1" vertex="1">
          <mxGeometry x="-120" y="140" width="240" height="40" as="geometry" />
        </mxCell>
        <mxCell id="LNQT6dG6mWMsPuXykQ5o-4" value="&lt;font style=&quot;font-size: 20px;&quot;&gt;reset&lt;/font&gt;" style="text;html=1;align=center;verticalAlign=middle;resizable=0;points=[];autosize=1;strokeColor=none;fillColor=none;" parent="1" vertex="1">
          <mxGeometry x="-35" y="40" width="70" height="40" as="geometry" />
        </mxCell>
        <mxCell id="QC0Fhj5VWblVltqkyniX-1" value="&lt;div style=&quot;font-size: 20px;&quot;&gt;&lt;font style=&quot;font-size: 20px;&quot;&gt;rden&lt;br&gt;&lt;/font&gt;&lt;/div&gt;&lt;div style=&quot;font-size: 20px;&quot;&gt;&lt;font style=&quot;font-size: 20px;&quot;&gt;readdatavalid&lt;/font&gt;&lt;/div&gt;&lt;div style=&quot;font-size: 20px;&quot;&gt;&lt;div&gt;&lt;div style=&quot;font-size: 20px;&quot;&gt;&lt;font style=&quot;font-size: 20px;&quot;&gt;writedata_reg_enable&lt;/font&gt;&lt;/div&gt;&lt;div style=&quot;font-size: 20px;&quot;&gt;&lt;font style=&quot;font-size: 20px;&quot;&gt;address_reg_enable&lt;font style=&quot;font-size: 20px;&quot;&gt;&lt;br&gt;&lt;/font&gt;&lt;/font&gt;&lt;/div&gt;&lt;/div&gt;&lt;/div&gt;" style="rounded=0;whiteSpace=wrap;html=1;" parent="1" vertex="1">
          <mxGeometry x="489.97" y="1030" width="220" height="100" as="geometry" />
        </mxCell>
        <mxCell id="QC0Fhj5VWblVltqkyniX-2" value="&lt;font style=&quot;font-size: 20px;&quot;&gt;READ_CMD&lt;/font&gt;" style="rounded=0;whiteSpace=wrap;html=1;" parent="1" vertex="1">
          <mxGeometry x="489.97" y="990" width="220" height="40" as="geometry" />
        </mxCell>
        <mxCell id="y8BEp6VOh7PGQdKIOAHJ-5" style="edgeStyle=orthogonalEdgeStyle;rounded=0;orthogonalLoop=1;jettySize=auto;html=1;" parent="1" edge="1">
          <mxGeometry relative="1" as="geometry">
            <mxPoint x="600" y="520" as="targetPoint" />
            <Array as="points">
              <mxPoint x="-260" y="2240" />
              <mxPoint x="-800" y="2240" />
              <mxPoint x="-800" y="520" />
            </Array>
            <mxPoint x="-260" y="2240" as="sourcePoint" />
          </mxGeometry>
        </mxCell>
        <mxCell id="-bv6IrQzAlE05KlDwNMb-1" style="edgeStyle=orthogonalEdgeStyle;rounded=0;orthogonalLoop=1;jettySize=auto;html=1;exitX=0.5;exitY=1;exitDx=0;exitDy=0;" edge="1" parent="1" source="QC0Fhj5VWblVltqkyniX-1">
          <mxGeometry relative="1" as="geometry">
            <mxPoint x="600" y="2240" as="targetPoint" />
            <mxPoint x="599.97" y="1470" as="sourcePoint" />
          </mxGeometry>
        </mxCell>
        <mxCell id="BG6pBBM5SffL5Xh3gY_b-3" style="edgeStyle=orthogonalEdgeStyle;rounded=0;orthogonalLoop=1;jettySize=auto;html=1;exitX=0.5;exitY=1;exitDx=0;exitDy=0;" parent="1" source="y8BEp6VOh7PGQdKIOAHJ-7" edge="1">
          <mxGeometry relative="1" as="geometry">
            <mxPoint x="600" y="2240" as="targetPoint" />
            <Array as="points">
              <mxPoint x="880" y="2240" />
            </Array>
          </mxGeometry>
        </mxCell>
        <mxCell id="y8BEp6VOh7PGQdKIOAHJ-7" value="&lt;div style=&quot;font-size: 20px;&quot;&gt;&lt;font style=&quot;font-size: 20px;&quot;&gt;wren&lt;br&gt;&lt;/font&gt;&lt;/div&gt;&lt;div&gt;&lt;div style=&quot;font-size: 20px;&quot;&gt;&lt;font style=&quot;font-size: 20px;&quot;&gt;writedata_reg_enable&lt;/font&gt;&lt;/div&gt;&lt;div style=&quot;font-size: 20px;&quot;&gt;&lt;font style=&quot;font-size: 20px;&quot;&gt;address_reg_enable&lt;font style=&quot;font-size: 20px;&quot;&gt;&lt;br&gt;&lt;/font&gt;&lt;/font&gt;&lt;/div&gt;&lt;/div&gt;" style="rounded=0;whiteSpace=wrap;html=1;" parent="1" vertex="1">
          <mxGeometry x="769.97" y="1030" width="220" height="100" as="geometry" />
        </mxCell>
        <mxCell id="y8BEp6VOh7PGQdKIOAHJ-8" value="&lt;font style=&quot;font-size: 20px;&quot;&gt;WRITE_CMD&lt;/font&gt;" style="rounded=0;whiteSpace=wrap;html=1;" parent="1" vertex="1">
          <mxGeometry x="769.97" y="990" width="220" height="40" as="geometry" />
        </mxCell>
        <mxCell id="NfLQxouftq1jA5gYRP5H-3" value="0" style="edgeStyle=orthogonalEdgeStyle;rounded=0;orthogonalLoop=1;jettySize=auto;html=1;exitX=0.5;exitY=1;exitDx=0;exitDy=0;entryX=0.5;entryY=0;entryDx=0;entryDy=0;" edge="1" parent="1" source="NfLQxouftq1jA5gYRP5H-2" target="w5SIX4CYdtg85TaAh0DZ-1">
          <mxGeometry x="-0.5" relative="1" as="geometry">
            <mxPoint as="offset" />
          </mxGeometry>
        </mxCell>
        <mxCell id="XzOtm7RjNidSwVb6bnne-4" value="1" style="edgeStyle=orthogonalEdgeStyle;rounded=0;orthogonalLoop=1;jettySize=auto;html=1;exitX=0;exitY=0.5;exitDx=0;exitDy=0;entryX=1;entryY=0.5;entryDx=0;entryDy=0;" edge="1" parent="1" source="NfLQxouftq1jA5gYRP5H-2" target="3q0baK_1dVWjSDw66UBx-1">
          <mxGeometry x="-0.8423" relative="1" as="geometry">
            <mxPoint x="440" y="640" as="targetPoint" />
            <mxPoint as="offset" />
          </mxGeometry>
        </mxCell>
        <mxCell id="NfLQxouftq1jA5gYRP5H-2" value="&lt;font style=&quot;font-size: 20px;&quot;&gt;beginbursttransfer&lt;/font&gt;" style="rhombus;whiteSpace=wrap;html=1;" vertex="1" parent="1">
          <mxGeometry x="479.97" y="580" width="240" height="80" as="geometry" />
        </mxCell>
        <mxCell id="XzOtm7RjNidSwVb6bnne-1" value="0" style="edgeStyle=orthogonalEdgeStyle;rounded=0;orthogonalLoop=1;jettySize=auto;html=1;exitX=0;exitY=0.5;exitDx=0;exitDy=0;entryX=1;entryY=0.5;entryDx=0;entryDy=0;" edge="1" parent="1" source="XzOtm7RjNidSwVb6bnne-2" target="XzOtm7RjNidSwVb6bnne-3">
          <mxGeometry x="-0.75" relative="1" as="geometry">
            <mxPoint as="offset" />
          </mxGeometry>
        </mxCell>
        <mxCell id="NdAZM5KcKo69d6adcEJK-3" value="1" style="edgeStyle=orthogonalEdgeStyle;rounded=0;orthogonalLoop=1;jettySize=auto;html=1;exitX=0.5;exitY=1;exitDx=0;exitDy=0;" edge="1" parent="1" source="XzOtm7RjNidSwVb6bnne-2">
          <mxGeometry relative="1" as="geometry">
            <mxPoint x="19.97" y="720" as="targetPoint" />
          </mxGeometry>
        </mxCell>
        <mxCell id="XzOtm7RjNidSwVb6bnne-2" value="&lt;font style=&quot;font-size: 20px;&quot;&gt;read&lt;/font&gt;" style="rhombus;whiteSpace=wrap;html=1;" vertex="1" parent="1">
          <mxGeometry x="-50.03" y="580" width="140" height="80" as="geometry" />
        </mxCell>
        <mxCell id="1i1qGNqlHZexts2QQj0f-7" value="1" style="edgeStyle=orthogonalEdgeStyle;rounded=0;orthogonalLoop=1;jettySize=auto;html=1;exitX=0.5;exitY=1;exitDx=0;exitDy=0;" edge="1" parent="1" source="XzOtm7RjNidSwVb6bnne-3">
          <mxGeometry x="-0.0089" relative="1" as="geometry">
            <mxPoint x="-540" y="720" as="targetPoint" />
            <mxPoint as="offset" />
          </mxGeometry>
        </mxCell>
        <mxCell id="1i1qGNqlHZexts2QQj0f-8" value="0" style="edgeStyle=orthogonalEdgeStyle;rounded=0;orthogonalLoop=1;jettySize=auto;html=1;exitX=0.5;exitY=0;exitDx=0;exitDy=0;" edge="1" parent="1" source="XzOtm7RjNidSwVb6bnne-3">
          <mxGeometry x="-0.9492" relative="1" as="geometry">
            <mxPoint x="600" y="300" as="targetPoint" />
            <Array as="points">
              <mxPoint x="-540" y="300" />
            </Array>
            <mxPoint as="offset" />
          </mxGeometry>
        </mxCell>
        <mxCell id="XzOtm7RjNidSwVb6bnne-3" value="&lt;font style=&quot;font-size: 20px;&quot;&gt;write&lt;/font&gt;" style="rhombus;whiteSpace=wrap;html=1;" vertex="1" parent="1">
          <mxGeometry x="-610.03" y="580" width="140" height="80" as="geometry" />
        </mxCell>
        <mxCell id="UZ06_RtwbaBu1scBagbM-6" style="edgeStyle=orthogonalEdgeStyle;rounded=0;orthogonalLoop=1;jettySize=auto;html=1;exitX=0.5;exitY=1;exitDx=0;exitDy=0;entryX=0.5;entryY=0;entryDx=0;entryDy=0;" edge="1" parent="1" source="NdAZM5KcKo69d6adcEJK-1" target="UZ06_RtwbaBu1scBagbM-4">
          <mxGeometry relative="1" as="geometry" />
        </mxCell>
        <mxCell id="NdAZM5KcKo69d6adcEJK-1" value="&lt;div style=&quot;font-size: 20px;&quot;&gt;&lt;font style=&quot;font-size: 20px;&quot;&gt;rden&lt;br&gt;&lt;/font&gt;&lt;/div&gt;&lt;div style=&quot;font-size: 20px;&quot;&gt;readdatavalid&lt;br&gt;&lt;/div&gt;&lt;div style=&quot;font-size: 20px;&quot;&gt;cnt_enable&lt;br&gt;&lt;/div&gt;&lt;div&gt;&lt;font style=&quot;font-size: 20px;&quot;&gt;address_sel&lt;/font&gt;&lt;/div&gt;&lt;div style=&quot;font-size: 20px;&quot;&gt;&lt;font style=&quot;font-size: 20px;&quot;&gt;address_reg_enable&lt;/font&gt;&lt;br&gt;&lt;/div&gt;" style="rounded=0;whiteSpace=wrap;html=1;" vertex="1" parent="1">
          <mxGeometry x="-100.03" y="820" width="240" height="140" as="geometry" />
        </mxCell>
        <mxCell id="MQnIqVVTc6y1FBcBNF5Y-4" style="edgeStyle=orthogonalEdgeStyle;rounded=0;orthogonalLoop=1;jettySize=auto;html=1;exitX=0.5;exitY=0;exitDx=0;exitDy=0;entryX=0.5;entryY=0;entryDx=0;entryDy=0;" edge="1" parent="1" target="NdAZM5KcKo69d6adcEJK-2">
          <mxGeometry relative="1" as="geometry">
            <mxPoint x="19.970000000000226" y="720" as="sourcePoint" />
          </mxGeometry>
        </mxCell>
        <mxCell id="NdAZM5KcKo69d6adcEJK-2" value="&lt;font style=&quot;font-size: 20px;&quot;&gt;BURST_READ&lt;/font&gt;" style="rounded=0;whiteSpace=wrap;html=1;" vertex="1" parent="1">
          <mxGeometry x="-100.03" y="780" width="240" height="40" as="geometry" />
        </mxCell>
        <mxCell id="UZ06_RtwbaBu1scBagbM-3" style="edgeStyle=orthogonalEdgeStyle;rounded=0;orthogonalLoop=1;jettySize=auto;html=1;exitX=0.5;exitY=1;exitDx=0;exitDy=0;" edge="1" parent="1" source="UZ06_RtwbaBu1scBagbM-1">
          <mxGeometry relative="1" as="geometry">
            <mxPoint x="599.97" y="300" as="targetPoint" />
          </mxGeometry>
        </mxCell>
        <mxCell id="UZ06_RtwbaBu1scBagbM-1" value="&lt;div&gt;&lt;font style=&quot;font-size: 20px;&quot;&gt;cnt_enable&lt;/font&gt;&lt;/div&gt;&lt;div&gt;&lt;font style=&quot;font-size: 20px;&quot;&gt;waitrequest&lt;/font&gt;&lt;/div&gt;" style="rounded=0;whiteSpace=wrap;html=1;" vertex="1" parent="1">
          <mxGeometry x="479.97" y="180" width="240" height="60" as="geometry" />
        </mxCell>
        <mxCell id="UZ06_RtwbaBu1scBagbM-2" value="&lt;font style=&quot;font-size: 20px;&quot;&gt;INIT2&lt;/font&gt;" style="rounded=0;whiteSpace=wrap;html=1;" vertex="1" parent="1">
          <mxGeometry x="479.97" y="140" width="240" height="40" as="geometry" />
        </mxCell>
        <mxCell id="UZ06_RtwbaBu1scBagbM-8" value="0" style="edgeStyle=orthogonalEdgeStyle;rounded=0;orthogonalLoop=1;jettySize=auto;html=1;exitX=0.5;exitY=1;exitDx=0;exitDy=0;entryX=0.5;entryY=0;entryDx=0;entryDy=0;" edge="1" parent="1" source="UZ06_RtwbaBu1scBagbM-4" target="UZ06_RtwbaBu1scBagbM-7">
          <mxGeometry relative="1" as="geometry" />
        </mxCell>
        <mxCell id="BVPVYDbdbwRrTqbXWbdP-7" style="edgeStyle=orthogonalEdgeStyle;rounded=0;orthogonalLoop=1;jettySize=auto;html=1;exitX=0;exitY=0.5;exitDx=0;exitDy=0;entryX=0;entryY=0.5;entryDx=0;entryDy=0;" edge="1" parent="1" source="UZ06_RtwbaBu1scBagbM-4" target="3q0baK_1dVWjSDw66UBx-8">
          <mxGeometry relative="1" as="geometry">
            <mxPoint x="19.970000000000027" y="1700" as="targetPoint" />
            <Array as="points">
              <mxPoint x="-220" y="1060" />
              <mxPoint x="-220" y="1730" />
            </Array>
          </mxGeometry>
        </mxCell>
        <mxCell id="UZ06_RtwbaBu1scBagbM-4" value="&lt;font style=&quot;font-size: 20px;&quot;&gt;burstend&lt;/font&gt;" style="rhombus;whiteSpace=wrap;html=1;" vertex="1" parent="1">
          <mxGeometry x="-50.03" y="1020" width="140" height="80" as="geometry" />
        </mxCell>
        <mxCell id="MQnIqVVTc6y1FBcBNF5Y-5" value="1" style="edgeStyle=orthogonalEdgeStyle;rounded=0;orthogonalLoop=1;jettySize=auto;html=1;exitX=1;exitY=0.5;exitDx=0;exitDy=0;" edge="1" parent="1" source="UZ06_RtwbaBu1scBagbM-7">
          <mxGeometry x="-0.9259" relative="1" as="geometry">
            <mxPoint x="19.97" y="720" as="targetPoint" />
            <Array as="points">
              <mxPoint x="199.97" y="1200" />
              <mxPoint x="199.97" y="720" />
            </Array>
            <mxPoint x="-1" as="offset" />
          </mxGeometry>
        </mxCell>
        <mxCell id="BVPVYDbdbwRrTqbXWbdP-1" style="edgeStyle=orthogonalEdgeStyle;rounded=0;orthogonalLoop=1;jettySize=auto;html=1;entryX=0.5;entryY=0;entryDx=0;entryDy=0;" edge="1" parent="1" target="ITne2Ok3dTppk8FrLAoW-2">
          <mxGeometry relative="1" as="geometry">
            <mxPoint x="19.97" y="1300" as="sourcePoint" />
          </mxGeometry>
        </mxCell>
        <mxCell id="BVPVYDbdbwRrTqbXWbdP-5" value="0" style="edgeStyle=orthogonalEdgeStyle;rounded=0;orthogonalLoop=1;jettySize=auto;html=1;exitX=0.5;exitY=1;exitDx=0;exitDy=0;" edge="1" parent="1" source="UZ06_RtwbaBu1scBagbM-7">
          <mxGeometry relative="1" as="geometry">
            <mxPoint x="19.72" y="1300" as="targetPoint" />
          </mxGeometry>
        </mxCell>
        <mxCell id="UZ06_RtwbaBu1scBagbM-7" value="&lt;font style=&quot;font-size: 20px;&quot;&gt;read&lt;/font&gt;" style="rhombus;whiteSpace=wrap;html=1;" vertex="1" parent="1">
          <mxGeometry x="-50.03" y="1160" width="140" height="80" as="geometry" />
        </mxCell>
        <mxCell id="1i1qGNqlHZexts2QQj0f-4" style="edgeStyle=orthogonalEdgeStyle;rounded=0;orthogonalLoop=1;jettySize=auto;html=1;exitX=0.5;exitY=1;exitDx=0;exitDy=0;" edge="1" parent="1" source="MQnIqVVTc6y1FBcBNF5Y-1">
          <mxGeometry relative="1" as="geometry">
            <mxPoint x="-259.97" y="2240" as="targetPoint" />
          </mxGeometry>
        </mxCell>
        <mxCell id="MQnIqVVTc6y1FBcBNF5Y-1" value="&lt;div&gt;&lt;font style=&quot;font-size: 20px;&quot;&gt;cnt_enable&lt;/font&gt;&lt;/div&gt;&lt;div&gt;&lt;font style=&quot;font-size: 20px;&quot;&gt;writedata_reg_enable&lt;/font&gt;&lt;/div&gt;&lt;div style=&quot;font-size: 20px;&quot;&gt;&lt;font style=&quot;font-size: 20px;&quot;&gt;address_reg_enable&lt;font style=&quot;font-size: 20px;&quot;&gt;&lt;br&gt;&lt;/font&gt;&lt;/font&gt;&lt;/div&gt;" style="rounded=0;whiteSpace=wrap;html=1;" vertex="1" parent="1">
          <mxGeometry x="-380" y="2100" width="240" height="80" as="geometry" />
        </mxCell>
        <mxCell id="MQnIqVVTc6y1FBcBNF5Y-2" value="&lt;font style=&quot;font-size: 20px;&quot;&gt;IDLE_AFTERBURST&lt;/font&gt;" style="rounded=0;whiteSpace=wrap;html=1;" vertex="1" parent="1">
          <mxGeometry x="-380" y="2060" width="240" height="40" as="geometry" />
        </mxCell>
        <mxCell id="BVPVYDbdbwRrTqbXWbdP-3" style="edgeStyle=orthogonalEdgeStyle;rounded=0;orthogonalLoop=1;jettySize=auto;html=1;exitX=0.5;exitY=1;exitDx=0;exitDy=0;entryX=0.5;entryY=0;entryDx=0;entryDy=0;" edge="1" parent="1" source="ITne2Ok3dTppk8FrLAoW-1" target="BVPVYDbdbwRrTqbXWbdP-2">
          <mxGeometry relative="1" as="geometry" />
        </mxCell>
        <mxCell id="ITne2Ok3dTppk8FrLAoW-1" value="&lt;font style=&quot;font-size: 20px;&quot;&gt;inc_disable&lt;/font&gt;" style="rounded=0;whiteSpace=wrap;html=1;" vertex="1" parent="1">
          <mxGeometry x="-100.03" y="1400" width="240" height="40" as="geometry" />
        </mxCell>
        <mxCell id="ITne2Ok3dTppk8FrLAoW-2" value="&lt;font style=&quot;font-size: 20px;&quot;&gt;BURST_READ_PAUSE&lt;/font&gt;" style="rounded=0;whiteSpace=wrap;html=1;" vertex="1" parent="1">
          <mxGeometry x="-100.03" y="1360" width="240" height="40" as="geometry" />
        </mxCell>
        <mxCell id="BVPVYDbdbwRrTqbXWbdP-4" value="0" style="edgeStyle=orthogonalEdgeStyle;rounded=0;orthogonalLoop=1;jettySize=auto;html=1;exitX=0;exitY=0.5;exitDx=0;exitDy=0;" edge="1" parent="1" source="BVPVYDbdbwRrTqbXWbdP-2">
          <mxGeometry x="-0.8947" relative="1" as="geometry">
            <mxPoint x="19.97" y="1300" as="targetPoint" />
            <Array as="points">
              <mxPoint x="-160.03" y="1540" />
              <mxPoint x="-160.03" y="1300" />
            </Array>
            <mxPoint x="1" as="offset" />
          </mxGeometry>
        </mxCell>
        <mxCell id="BVPVYDbdbwRrTqbXWbdP-6" value="1" style="edgeStyle=orthogonalEdgeStyle;rounded=0;orthogonalLoop=1;jettySize=auto;html=1;exitX=1;exitY=0.5;exitDx=0;exitDy=0;" edge="1" parent="1" source="BVPVYDbdbwRrTqbXWbdP-2">
          <mxGeometry x="-0.8725" relative="1" as="geometry">
            <mxPoint x="199.97" y="1200" as="targetPoint" />
            <mxPoint x="1" as="offset" />
          </mxGeometry>
        </mxCell>
        <mxCell id="BVPVYDbdbwRrTqbXWbdP-2" value="&lt;font style=&quot;font-size: 20px;&quot;&gt;read&lt;/font&gt;" style="rhombus;whiteSpace=wrap;html=1;" vertex="1" parent="1">
          <mxGeometry x="-50.03" y="1500" width="140" height="80" as="geometry" />
        </mxCell>
        <mxCell id="1i1qGNqlHZexts2QQj0f-12" style="edgeStyle=orthogonalEdgeStyle;rounded=0;orthogonalLoop=1;jettySize=auto;html=1;exitX=0.5;exitY=1;exitDx=0;exitDy=0;entryX=0.5;entryY=0;entryDx=0;entryDy=0;" edge="1" parent="1" source="1i1qGNqlHZexts2QQj0f-1" target="1i1qGNqlHZexts2QQj0f-10">
          <mxGeometry relative="1" as="geometry" />
        </mxCell>
        <mxCell id="1i1qGNqlHZexts2QQj0f-1" value="&lt;div style=&quot;font-size: 20px;&quot;&gt;&lt;font style=&quot;font-size: 20px;&quot;&gt;wren&lt;br&gt;&lt;/font&gt;&lt;/div&gt;&lt;div style=&quot;font-size: 20px;&quot;&gt;cnt_enable&lt;br&gt;&lt;/div&gt;&lt;div&gt;&lt;font style=&quot;font-size: 20px;&quot;&gt;address_sel&lt;/font&gt;&lt;/div&gt;&lt;div style=&quot;font-size: 20px;&quot;&gt;&lt;font style=&quot;font-size: 20px;&quot;&gt;address_reg_enable&lt;/font&gt;&lt;/div&gt;&lt;div style=&quot;font-size: 20px;&quot;&gt;&lt;font style=&quot;font-size: 20px;&quot;&gt;writedata_reg_enable&lt;br&gt;&lt;/font&gt;&lt;/div&gt;" style="rounded=0;whiteSpace=wrap;html=1;" vertex="1" parent="1">
          <mxGeometry x="-660.03" y="820" width="240" height="140" as="geometry" />
        </mxCell>
        <mxCell id="3q0baK_1dVWjSDw66UBx-15" style="edgeStyle=orthogonalEdgeStyle;rounded=0;orthogonalLoop=1;jettySize=auto;html=1;exitX=0.5;exitY=0;exitDx=0;exitDy=0;entryX=0.5;entryY=0;entryDx=0;entryDy=0;" edge="1" parent="1" target="1i1qGNqlHZexts2QQj0f-2">
          <mxGeometry relative="1" as="geometry">
            <mxPoint x="-540.3333333333334" y="720" as="sourcePoint" />
            <Array as="points">
              <mxPoint x="-540" y="740" />
              <mxPoint x="-540" y="740" />
            </Array>
          </mxGeometry>
        </mxCell>
        <mxCell id="1i1qGNqlHZexts2QQj0f-2" value="&lt;font style=&quot;font-size: 20px;&quot;&gt;BURST_WRITE&lt;/font&gt;" style="rounded=0;whiteSpace=wrap;html=1;" vertex="1" parent="1">
          <mxGeometry x="-660.03" y="780" width="240" height="40" as="geometry" />
        </mxCell>
        <mxCell id="1i1qGNqlHZexts2QQj0f-5" value="" style="endArrow=classic;html=1;rounded=0;" edge="1" parent="1">
          <mxGeometry width="50" height="50" relative="1" as="geometry">
            <mxPoint x="600" y="2240" as="sourcePoint" />
            <mxPoint x="-260" y="2240" as="targetPoint" />
          </mxGeometry>
        </mxCell>
        <mxCell id="1i1qGNqlHZexts2QQj0f-9" value="0" style="edgeStyle=orthogonalEdgeStyle;rounded=0;orthogonalLoop=1;jettySize=auto;html=1;exitX=0.5;exitY=1;exitDx=0;exitDy=0;entryX=0.5;entryY=0;entryDx=0;entryDy=0;" edge="1" parent="1" source="1i1qGNqlHZexts2QQj0f-10" target="1i1qGNqlHZexts2QQj0f-11">
          <mxGeometry relative="1" as="geometry" />
        </mxCell>
        <mxCell id="3q0baK_1dVWjSDw66UBx-29" style="edgeStyle=orthogonalEdgeStyle;rounded=0;orthogonalLoop=1;jettySize=auto;html=1;exitX=1;exitY=0.5;exitDx=0;exitDy=0;entryX=1;entryY=0.5;entryDx=0;entryDy=0;" edge="1" parent="1" source="1i1qGNqlHZexts2QQj0f-10" target="3q0baK_1dVWjSDw66UBx-26">
          <mxGeometry relative="1" as="geometry">
            <Array as="points">
              <mxPoint x="-300" y="1060" />
              <mxPoint x="-300" y="1730" />
            </Array>
          </mxGeometry>
        </mxCell>
        <mxCell id="1i1qGNqlHZexts2QQj0f-10" value="&lt;font style=&quot;font-size: 20px;&quot;&gt;burstend&lt;/font&gt;" style="rhombus;whiteSpace=wrap;html=1;" vertex="1" parent="1">
          <mxGeometry x="-610.03" y="1020" width="140" height="80" as="geometry" />
        </mxCell>
        <mxCell id="3q0baK_1dVWjSDw66UBx-14" value="1" style="edgeStyle=orthogonalEdgeStyle;rounded=0;orthogonalLoop=1;jettySize=auto;html=1;exitX=0;exitY=0.5;exitDx=0;exitDy=0;" edge="1" parent="1" source="1i1qGNqlHZexts2QQj0f-11">
          <mxGeometry x="-0.8962" relative="1" as="geometry">
            <mxPoint x="-540" y="720" as="targetPoint" />
            <Array as="points">
              <mxPoint x="-720" y="1200" />
              <mxPoint x="-720" y="720" />
            </Array>
            <mxPoint as="offset" />
          </mxGeometry>
        </mxCell>
        <mxCell id="3q0baK_1dVWjSDw66UBx-20" value="0" style="edgeStyle=orthogonalEdgeStyle;rounded=0;orthogonalLoop=1;jettySize=auto;html=1;exitX=0.5;exitY=1;exitDx=0;exitDy=0;" edge="1" parent="1" source="1i1qGNqlHZexts2QQj0f-11">
          <mxGeometry relative="1" as="geometry">
            <mxPoint x="-539.6363636363637" y="1300" as="targetPoint" />
          </mxGeometry>
        </mxCell>
        <mxCell id="1i1qGNqlHZexts2QQj0f-11" value="&lt;font style=&quot;font-size: 20px;&quot;&gt;write&lt;/font&gt;" style="rhombus;whiteSpace=wrap;html=1;" vertex="1" parent="1">
          <mxGeometry x="-610.03" y="1160" width="140" height="80" as="geometry" />
        </mxCell>
        <mxCell id="3q0baK_1dVWjSDw66UBx-2" value="0" style="edgeStyle=orthogonalEdgeStyle;rounded=0;orthogonalLoop=1;jettySize=auto;html=1;exitX=0;exitY=0.5;exitDx=0;exitDy=0;entryX=1;entryY=0.5;entryDx=0;entryDy=0;" edge="1" parent="1" source="3q0baK_1dVWjSDw66UBx-1" target="XzOtm7RjNidSwVb6bnne-2">
          <mxGeometry x="-0.5556" relative="1" as="geometry">
            <mxPoint as="offset" />
          </mxGeometry>
        </mxCell>
        <mxCell id="3q0baK_1dVWjSDw66UBx-3" value="1" style="edgeStyle=orthogonalEdgeStyle;rounded=0;orthogonalLoop=1;jettySize=auto;html=1;exitX=0.5;exitY=1;exitDx=0;exitDy=0;" edge="1" parent="1" source="3q0baK_1dVWjSDw66UBx-1">
          <mxGeometry x="-0.742" relative="1" as="geometry">
            <mxPoint x="600" y="720" as="targetPoint" />
            <Array as="points">
              <mxPoint x="350" y="720" />
            </Array>
            <mxPoint as="offset" />
          </mxGeometry>
        </mxCell>
        <mxCell id="3q0baK_1dVWjSDw66UBx-1" value="&lt;font style=&quot;font-size: 20px;&quot;&gt;false_burst&lt;/font&gt;" style="rhombus;whiteSpace=wrap;html=1;" vertex="1" parent="1">
          <mxGeometry x="280" y="580" width="140" height="80" as="geometry" />
        </mxCell>
        <mxCell id="3q0baK_1dVWjSDw66UBx-6" style="edgeStyle=orthogonalEdgeStyle;rounded=0;orthogonalLoop=1;jettySize=auto;html=1;exitX=1;exitY=0.5;exitDx=0;exitDy=0;entryX=0;entryY=0.5;entryDx=0;entryDy=0;" edge="1" parent="1" source="3q0baK_1dVWjSDw66UBx-4" target="UZ06_RtwbaBu1scBagbM-1">
          <mxGeometry relative="1" as="geometry" />
        </mxCell>
        <mxCell id="3q0baK_1dVWjSDw66UBx-4" value="&lt;div&gt;&lt;font style=&quot;font-size: 20px;&quot;&gt;cnt_enable&lt;/font&gt;&lt;/div&gt;&lt;div&gt;&lt;font style=&quot;font-size: 20px;&quot;&gt;waitrequest&lt;/font&gt;&lt;/div&gt;" style="rounded=0;whiteSpace=wrap;html=1;" vertex="1" parent="1">
          <mxGeometry x="180" y="180" width="240" height="60" as="geometry" />
        </mxCell>
        <mxCell id="3q0baK_1dVWjSDw66UBx-5" value="&lt;font style=&quot;font-size: 20px;&quot;&gt;INIT1&lt;/font&gt;" style="rounded=0;whiteSpace=wrap;html=1;" vertex="1" parent="1">
          <mxGeometry x="180" y="140" width="240" height="40" as="geometry" />
        </mxCell>
        <mxCell id="3q0baK_1dVWjSDw66UBx-31" style="edgeStyle=orthogonalEdgeStyle;rounded=0;orthogonalLoop=1;jettySize=auto;html=1;exitX=0.5;exitY=1;exitDx=0;exitDy=0;" edge="1" parent="1" source="3q0baK_1dVWjSDw66UBx-8">
          <mxGeometry relative="1" as="geometry">
            <mxPoint x="-259.9999999999998" y="1840" as="targetPoint" />
            <Array as="points">
              <mxPoint x="20" y="1840" />
            </Array>
          </mxGeometry>
        </mxCell>
        <mxCell id="3q0baK_1dVWjSDw66UBx-8" value="&lt;div style=&quot;font-size: 20px;&quot;&gt;&lt;font style=&quot;font-size: 20px;&quot;&gt;rden&lt;br&gt;&lt;/font&gt;&lt;/div&gt;&lt;div style=&quot;font-size: 20px;&quot;&gt;readdatavalid&lt;br&gt;&lt;div style=&quot;font-size: 20px;&quot;&gt;cnt_clear_n&lt;br&gt;&lt;/div&gt;&lt;div style=&quot;font-size: 20px;&quot;&gt;waitrequest&lt;br&gt;&lt;/div&gt;&lt;/div&gt;" style="rounded=0;whiteSpace=wrap;html=1;" vertex="1" parent="1">
          <mxGeometry x="-100.03" y="1680" width="240" height="100" as="geometry" />
        </mxCell>
        <mxCell id="3q0baK_1dVWjSDw66UBx-9" value="&lt;font style=&quot;font-size: 20px;&quot;&gt;BURST_LASTREAD&lt;/font&gt;" style="rounded=0;whiteSpace=wrap;html=1;" vertex="1" parent="1">
          <mxGeometry x="-100.03000000000003" y="1640" width="240" height="40" as="geometry" />
        </mxCell>
        <mxCell id="3q0baK_1dVWjSDw66UBx-13" style="edgeStyle=orthogonalEdgeStyle;rounded=0;orthogonalLoop=1;jettySize=auto;html=1;exitX=0.5;exitY=1;exitDx=0;exitDy=0;entryX=0.5;entryY=0;entryDx=0;entryDy=0;" edge="1" parent="1" source="3q0baK_1dVWjSDw66UBx-10" target="MQnIqVVTc6y1FBcBNF5Y-2">
          <mxGeometry relative="1" as="geometry" />
        </mxCell>
        <mxCell id="3q0baK_1dVWjSDw66UBx-10" value="&lt;div&gt;&lt;font style=&quot;font-size: 20px;&quot;&gt;cnt_enable&lt;/font&gt;&lt;/div&gt;&lt;div&gt;&lt;font style=&quot;font-size: 20px;&quot;&gt;waitrequest&lt;/font&gt;&lt;/div&gt;" style="rounded=0;whiteSpace=wrap;html=1;" vertex="1" parent="1">
          <mxGeometry x="-380" y="1940" width="240" height="60" as="geometry" />
        </mxCell>
        <mxCell id="3q0baK_1dVWjSDw66UBx-32" style="edgeStyle=orthogonalEdgeStyle;rounded=0;orthogonalLoop=1;jettySize=auto;html=1;exitX=0.5;exitY=0;exitDx=0;exitDy=0;entryX=0.5;entryY=0;entryDx=0;entryDy=0;" edge="1" parent="1" target="3q0baK_1dVWjSDw66UBx-11">
          <mxGeometry relative="1" as="geometry">
            <mxPoint x="-259.9999999999998" y="1840" as="sourcePoint" />
            <Array as="points">
              <mxPoint x="-260" y="1890" />
              <mxPoint x="-260" y="1890" />
            </Array>
          </mxGeometry>
        </mxCell>
        <mxCell id="3q0baK_1dVWjSDw66UBx-11" value="&lt;font style=&quot;font-size: 20px;&quot;&gt;WAIT&lt;/font&gt;" style="rounded=0;whiteSpace=wrap;html=1;" vertex="1" parent="1">
          <mxGeometry x="-380" y="1900" width="240" height="40" as="geometry" />
        </mxCell>
        <mxCell id="3q0baK_1dVWjSDw66UBx-23" style="edgeStyle=orthogonalEdgeStyle;rounded=0;orthogonalLoop=1;jettySize=auto;html=1;exitX=0.5;exitY=1;exitDx=0;exitDy=0;entryX=0.5;entryY=0;entryDx=0;entryDy=0;" edge="1" parent="1" source="3q0baK_1dVWjSDw66UBx-17" target="3q0baK_1dVWjSDw66UBx-22">
          <mxGeometry relative="1" as="geometry" />
        </mxCell>
        <mxCell id="3q0baK_1dVWjSDw66UBx-17" value="&lt;font style=&quot;font-size: 20px;&quot;&gt;inc_disable&lt;/font&gt;" style="rounded=0;whiteSpace=wrap;html=1;" vertex="1" parent="1">
          <mxGeometry x="-660.03" y="1400" width="240" height="40" as="geometry" />
        </mxCell>
        <mxCell id="3q0baK_1dVWjSDw66UBx-21" style="edgeStyle=orthogonalEdgeStyle;rounded=0;orthogonalLoop=1;jettySize=auto;html=1;exitX=0.5;exitY=0;exitDx=0;exitDy=0;entryX=0.5;entryY=0;entryDx=0;entryDy=0;" edge="1" parent="1" target="3q0baK_1dVWjSDw66UBx-18">
          <mxGeometry relative="1" as="geometry">
            <mxPoint x="-539.6363636363637" y="1300" as="sourcePoint" />
            <Array as="points">
              <mxPoint x="-540" y="1350" />
              <mxPoint x="-540" y="1350" />
            </Array>
          </mxGeometry>
        </mxCell>
        <mxCell id="3q0baK_1dVWjSDw66UBx-18" value="&lt;font style=&quot;font-size: 20px;&quot;&gt;BURST_WRITE_PAUSE&lt;/font&gt;" style="rounded=0;whiteSpace=wrap;html=1;" vertex="1" parent="1">
          <mxGeometry x="-660.03" y="1360" width="240" height="40" as="geometry" />
        </mxCell>
        <mxCell id="3q0baK_1dVWjSDw66UBx-24" value="0" style="edgeStyle=orthogonalEdgeStyle;rounded=0;orthogonalLoop=1;jettySize=auto;html=1;exitX=1;exitY=0.5;exitDx=0;exitDy=0;" edge="1" parent="1" source="3q0baK_1dVWjSDw66UBx-22">
          <mxGeometry x="-0.849" relative="1" as="geometry">
            <mxPoint x="-540" y="1300" as="targetPoint" />
            <Array as="points">
              <mxPoint x="-360" y="1540" />
              <mxPoint x="-360" y="1300" />
            </Array>
            <mxPoint as="offset" />
          </mxGeometry>
        </mxCell>
        <mxCell id="3q0baK_1dVWjSDw66UBx-25" value="1" style="edgeStyle=orthogonalEdgeStyle;rounded=0;orthogonalLoop=1;jettySize=auto;html=1;exitX=0;exitY=0.5;exitDx=0;exitDy=0;" edge="1" parent="1" source="3q0baK_1dVWjSDw66UBx-22">
          <mxGeometry x="-0.8666" relative="1" as="geometry">
            <mxPoint x="-720.0000000000002" y="1200" as="targetPoint" />
            <mxPoint as="offset" />
          </mxGeometry>
        </mxCell>
        <mxCell id="3q0baK_1dVWjSDw66UBx-22" value="&lt;font style=&quot;font-size: 20px;&quot;&gt;write&lt;/font&gt;" style="rhombus;whiteSpace=wrap;html=1;" vertex="1" parent="1">
          <mxGeometry x="-610.03" y="1500" width="140" height="80" as="geometry" />
        </mxCell>
        <mxCell id="3q0baK_1dVWjSDw66UBx-30" style="edgeStyle=orthogonalEdgeStyle;rounded=0;orthogonalLoop=1;jettySize=auto;html=1;exitX=0.5;exitY=1;exitDx=0;exitDy=0;" edge="1" parent="1" source="3q0baK_1dVWjSDw66UBx-26">
          <mxGeometry relative="1" as="geometry">
            <mxPoint x="-259.9999999999998" y="1840" as="targetPoint" />
            <Array as="points">
              <mxPoint x="-540" y="1840" />
            </Array>
          </mxGeometry>
        </mxCell>
        <mxCell id="3q0baK_1dVWjSDw66UBx-26" value="&lt;div style=&quot;font-size: 20px;&quot;&gt;&lt;font style=&quot;font-size: 20px;&quot;&gt;wren&lt;br&gt;&lt;/font&gt;&lt;/div&gt;&lt;div style=&quot;font-size: 20px;&quot;&gt;cnt_clear_n&lt;br&gt;&lt;div style=&quot;font-size: 20px;&quot;&gt;waitrequest&lt;br&gt;&lt;/div&gt;&lt;/div&gt;" style="rounded=0;whiteSpace=wrap;html=1;" vertex="1" parent="1">
          <mxGeometry x="-660.03" y="1680" width="240" height="100" as="geometry" />
        </mxCell>
        <mxCell id="3q0baK_1dVWjSDw66UBx-27" value="&lt;font style=&quot;font-size: 20px;&quot;&gt;BURST_LASTWRITE&lt;/font&gt;" style="rounded=0;whiteSpace=wrap;html=1;" vertex="1" parent="1">
          <mxGeometry x="-660.03" y="1640" width="240" height="40" as="geometry" />
        </mxCell>
      </root>
    </mxGraphModel>
  </diagram>
</mxfile>
